<svg width="12" height="13" viewBox="0 0 12 13" fill="none" xmlns="http://www.w3.org/2000/svg">
<g clip-path="url(#clip0_699_3011)">
<path d="M11.3137 7.09474C11.6362 6.76573 11.6362 6.23142 11.3137 5.90241L7.18651 1.69109C6.86407 1.36208 6.34043 1.36208 6.018 1.69109C5.69556 2.0201 5.69556 2.55441 6.018 2.88342L8.73938 5.65763H0.825443C0.36887 5.65763 0 6.03401 0 6.49989C0 6.96577 0.36887 7.34215 0.825443 7.34215H8.7368L6.02057 10.1164C5.69814 10.4454 5.69814 10.9797 6.02057 11.3087C6.34301 11.6377 6.86665 11.6377 7.18909 11.3087L11.3163 7.09737L11.3137 7.09474Z" fill="#111111"/>
</g>
<defs>
<clipPath id="clip0_699_3011">
<rect width="11.5556" height="13" fill="white"/>
</clipPath>
</defs>
</svg>
