<svg width="17" height="18" viewBox="0 0 17 18" fill="none" xmlns="http://www.w3.org/2000/svg">
<g clip-path="url(#clip0_699_3179)">
<path fill-rule="evenodd" clip-rule="evenodd" d="M12.8566 3.14871C12.6519 3.13187 12.3831 3.1313 11.9667 3.1313H6.18889C5.57025 3.1313 5.1497 3.13187 4.82464 3.15861C4.50801 3.18467 4.34608 3.23188 4.23313 3.28984C3.96134 3.42929 3.74036 3.65181 3.60188 3.9255C3.54433 4.03925 3.49744 4.2023 3.47157 4.52115C3.44501 4.84849 3.44445 5.27197 3.44445 5.89494V12.2478C3.86936 12.0002 4.3627 11.8586 4.88889 11.8586H13.5556V4.7313C13.5556 4.31199 13.555 4.04125 13.5383 3.83519C13.5222 3.63761 13.495 3.56436 13.4768 3.5284C13.4076 3.39156 13.2971 3.2803 13.1612 3.21057C13.1255 3.19225 13.0528 3.16485 12.8566 3.14871ZM15 4.70326C15 4.31988 15 3.98915 14.9779 3.71674C14.9546 3.42921 14.9031 3.14324 14.7638 2.86805C14.5561 2.45752 14.2247 2.12374 13.817 1.91456C13.5437 1.77435 13.2597 1.72248 12.9742 1.69899C12.7037 1.67673 12.3752 1.67675 11.9945 1.67676L6.15906 1.67676C5.57769 1.67675 5.09788 1.67674 4.70702 1.7089C4.30106 1.7423 3.92788 1.81398 3.57736 1.99383C3.03378 2.27274 2.59184 2.71777 2.31487 3.26515C2.13627 3.61812 2.06509 3.99391 2.03192 4.4027C1.99998 4.7963 1.99999 5.27947 2 5.8649V13.4886C1.99999 13.8801 1.99999 14.2258 2.00953 14.5296C2.00322 14.6081 2 14.6875 2 14.7677C2 14.8466 2.01248 14.9225 2.03555 14.9937C2.07021 15.3859 2.14253 15.7478 2.31487 16.0884C2.59184 16.6357 3.03378 17.0808 3.57736 17.3597C3.92788 17.5395 4.30106 17.6112 4.70702 17.6446C5.09787 17.6768 5.57768 17.6768 6.15904 17.6768H11.9945C12.3752 17.6768 12.7037 17.6768 12.9742 17.6545C13.2597 17.631 13.5437 17.5792 13.817 17.439C14.2247 17.2298 14.5561 16.896 14.7638 16.4855C14.9031 16.2103 14.9546 15.9243 14.9779 15.6368C14.9976 15.394 14.9998 15.105 15 14.7737C15 14.7717 15 14.7697 15 14.7677V14.6995C15 14.6832 15 14.6668 15 14.6503V4.70326ZM3.45657 14.5783C3.4603 14.6695 3.46518 14.7537 3.47157 14.8324C3.49744 15.1512 3.54433 15.3143 3.60188 15.428C3.74036 15.7017 3.96134 15.9242 4.23313 16.0637C4.34608 16.1216 4.50801 16.1689 4.82464 16.1949C5.1497 16.2216 5.57025 16.2222 6.18889 16.2222H11.9667C12.3831 16.2222 12.6519 16.2216 12.8566 16.2048C13.0528 16.1887 13.1255 16.1613 13.1612 16.1429C13.2971 16.0732 13.4076 15.962 13.4768 15.8251C13.495 15.7892 13.5222 15.7159 13.5383 15.5183C13.555 15.3123 13.5556 15.0415 13.5556 14.6222V13.3131H4.88889C4.15487 13.3131 3.54873 13.8645 3.45657 14.5783Z" fill="white"/>
</g>
<defs>
<clipPath id="clip0_699_3179">
<rect width="17" height="17" fill="white" transform="translate(0 0.676758)"/>
</clipPath>
</defs>
</svg>
