<svg width="22" height="19" viewBox="0 0 22 19" fill="none" xmlns="http://www.w3.org/2000/svg">
<path d="M7.39996 10.9776C7.39996 11.4976 6.98803 11.869 6.50017 11.869C5.97566 11.869 5.60039 11.4976 5.60039 10.9776C5.60039 10.4948 5.97566 10.0862 6.50017 10.0862C6.98803 10.0862 7.39996 10.4948 7.39996 10.9776ZM14.6 10.9776C14.6 10.4948 14.9752 10.0862 15.5006 10.0862C15.9876 10.0862 16.4004 10.4948 16.4004 10.9776C16.4004 11.4976 15.9876 11.869 15.5006 11.869C14.9752 11.869 14.6 11.4976 14.6 10.9776ZM9.31297 0.0953319C9.72489 0.318166 9.91252 0.875337 9.68823 1.321L6.61275 7.11495H15.3505L12.275 1.321C12.0507 0.875337 12.2375 0.318166 12.6503 0.0953319C13.1006 -0.127502 13.6626 0.058164 13.8878 0.466751L17.3752 7.11495H20.9002C21.388 7.11495 21.8 7.52353 21.8 8.00637C21.8 8.52629 21.388 8.8977 20.9002 8.8977H20.1505L18.0507 17.2172C17.7505 18.2572 16.8132 19 15.7249 19H6.23749C5.15007 19 4.21276 18.2572 3.91254 17.2172L1.85028 8.8977H1.1006C0.575222 8.8977 0.199951 8.52629 0.199951 8.00637C0.199951 7.52353 0.575222 7.11495 1.1006 7.11495H4.58802L8.07544 0.466751C8.3006 0.058164 8.86264 -0.127502 9.31297 0.0953319ZM18.275 8.8977H3.68823L5.67544 16.7716C5.75049 17.0316 5.97567 17.2172 6.23749 17.2172H15.7249C15.9876 17.2172 16.2127 17.0316 16.2878 16.7716L18.275 8.8977Z" fill="#01AD01"/>
</svg>
