<svg width="10" height="10" viewBox="0 0 10 10" fill="none" xmlns="http://www.w3.org/2000/svg">
<path d="M5 0.9375C6.07744 0.9375 7.11075 1.36551 7.87262 2.12738C8.63449 2.88925 9.0625 3.92256 9.0625 5C9.0625 6.07744 8.63449 7.11075 7.87262 7.87262C7.11075 8.63449 6.07744 9.0625 5 9.0625C3.92256 9.0625 2.88925 8.63449 2.12738 7.87262C1.36551 7.11075 0.9375 6.07744 0.9375 5C0.9375 3.92256 1.36551 2.88925 2.12738 2.12738C2.88925 1.36551 3.92256 0.9375 5 0.9375ZM5 10C6.32608 10 7.59785 9.47322 8.53553 8.53553C9.47322 7.59785 10 6.32608 10 5C10 3.67392 9.47322 2.40215 8.53553 1.46447C7.59785 0.526784 6.32608 0 5 0C3.67392 0 2.40215 0.526784 1.46447 1.46447C0.526784 2.40215 0 3.67392 0 5C0 6.32608 0.526784 7.59785 1.46447 8.53553C2.40215 9.47322 3.67392 10 5 10ZM5 2.5C5.66304 2.5 6.29893 2.76339 6.76777 3.23223C7.23661 3.70107 7.5 4.33696 7.5 5C7.5 5.66304 7.23661 6.29893 6.76777 6.76777C6.29893 7.23661 5.66304 7.5 5 7.5C4.33696 7.5 3.70107 7.23661 3.23223 6.76777C2.76339 6.29893 2.5 5.66304 2.5 5C2.5 4.33696 2.76339 3.70107 3.23223 3.23223C3.70107 2.76339 4.33696 2.5 5 2.5ZM5 8.4375C5.91168 8.4375 6.78602 8.07534 7.43068 7.43068C8.07534 6.78602 8.4375 5.91168 8.4375 5C8.4375 4.08832 8.07534 3.21398 7.43068 2.56932C6.78602 1.92466 5.91168 1.5625 5 1.5625C4.08832 1.5625 3.21398 1.92466 2.56932 2.56932C1.92466 3.21398 1.5625 4.08832 1.5625 5C1.5625 5.91168 1.92466 6.78602 2.56932 7.43068C3.21398 8.07534 4.08832 8.4375 5 8.4375Z" fill="#FFA800"/>
</svg>
