<svg width="16" height="10" viewBox="0 0 16 10" fill="none" xmlns="http://www.w3.org/2000/svg">
<path d="M1.6 1.25C1.38 1.25 1.2 1.4375 1.2 1.66667V8.33333C1.2 8.5625 1.38 8.75 1.6 8.75H14.4C14.62 8.75 14.8 8.5625 14.8 8.33333V7.42188C13.765 7.14323 13 6.16667 13 5C13 3.83333 13.765 2.85677 14.8 2.57812V1.66667C14.8 1.4375 14.62 1.25 14.4 1.25H1.6ZM0 1.66667C0 0.747396 0.7175 0 1.6 0H14.4C15.2825 0 16 0.747396 16 1.66667V3.26302C16 3.55469 15.68 3.75 15.4 3.75C14.7375 3.75 14.2 4.3099 14.2 5C14.2 5.6901 14.7375 6.25 15.4 6.25C15.68 6.25 16 6.44531 16 6.73698V8.33333C16 9.2526 15.2825 10 14.4 10H1.6C0.7175 10 0 9.2526 0 8.33333V1.66667ZM10.8 2.08333C10.9061 2.08333 11.0078 2.12723 11.0828 2.20537C11.1579 2.28351 11.2 2.38949 11.2 2.5C11.2 2.61051 11.1579 2.71649 11.0828 2.79463C11.0078 2.87277 10.9061 2.91667 10.8 2.91667C10.6939 2.91667 10.5922 2.87277 10.5172 2.79463C10.4421 2.71649 10.4 2.61051 10.4 2.5C10.4 2.38949 10.4421 2.28351 10.5172 2.20537C10.5922 2.12723 10.6939 2.08333 10.8 2.08333ZM10.8 3.75C10.9061 3.75 11.0078 3.7939 11.0828 3.87204C11.1579 3.95018 11.2 4.05616 11.2 4.16667C11.2 4.27717 11.1579 4.38315 11.0828 4.46129C11.0078 4.53943 10.9061 4.58333 10.8 4.58333C10.6939 4.58333 10.5922 4.53943 10.5172 4.46129C10.4421 4.38315 10.4 4.27717 10.4 4.16667C10.4 4.05616 10.4421 3.95018 10.5172 3.87204C10.5922 3.7939 10.6939 3.75 10.8 3.75ZM10.4 5.83333C10.4 5.72283 10.4421 5.61685 10.5172 5.53871C10.5922 5.46057 10.6939 5.41667 10.8 5.41667C10.9061 5.41667 11.0078 5.46057 11.0828 5.53871C11.1579 5.61685 11.2 5.72283 11.2 5.83333C11.2 5.94384 11.1579 6.04982 11.0828 6.12796C11.0078 6.2061 10.9061 6.25 10.8 6.25C10.6939 6.25 10.5922 6.2061 10.5172 6.12796C10.4421 6.04982 10.4 5.94384 10.4 5.83333ZM10.8 7.08333C10.9061 7.08333 11.0078 7.12723 11.0828 7.20537C11.1579 7.28351 11.2 7.38949 11.2 7.5C11.2 7.61051 11.1579 7.71649 11.0828 7.79463C11.0078 7.87277 10.9061 7.91667 10.8 7.91667C10.6939 7.91667 10.5922 7.87277 10.5172 7.79463C10.4421 7.71649 10.4 7.61051 10.4 7.5C10.4 7.38949 10.4421 7.28351 10.5172 7.20537C10.5922 7.12723 10.6939 7.08333 10.8 7.08333Z" fill="#BC0000"/>
</svg>
