<svg width="13" height="13" viewBox="0 0 13 13" fill="none" xmlns="http://www.w3.org/2000/svg">
<path d="M6.07044 1.43178C5.66966 0.751443 4.93736 0.333344 4.14817 0.333344H4.09374C2.8914 0.333344 1.91666 1.30808 1.91666 2.51043C1.91666 2.86668 2.00325 3.20314 2.15416 3.50001H1.52083C0.865229 3.50001 0.333328 4.03191 0.333328 4.68751V6.27084C0.333328 6.7879 0.664839 7.22827 1.12499 7.39155V7.45834V11.4167C1.12499 12.29 1.83502 13 2.70833 13H10.625C11.4983 13 12.2083 12.29 12.2083 11.4167V7.45834V7.39155C12.6685 7.22827 13 6.7879 13 6.27084V4.68751C13 4.03191 12.4681 3.50001 11.8125 3.50001H11.1792C11.3301 3.20314 11.4167 2.86668 11.4167 2.51043C11.4167 1.30808 10.4419 0.333344 9.23958 0.333344H9.18515C8.39596 0.333344 7.66367 0.751443 7.26289 1.43178L6.66666 2.44858L6.07044 1.43426V1.43178ZM11.8125 4.68751V6.27084H11.0208H7.45833V4.68751H9.23958H11.8125ZM5.875 4.68751V6.27084H2.31249H1.52083V4.68751H4.09374H5.875ZM5.875 7.45834V11.8125H2.70833C2.49062 11.8125 2.31249 11.6344 2.31249 11.4167V7.45834H5.875ZM7.45833 11.8125V7.45834H11.0208V11.4167C11.0208 11.6344 10.8427 11.8125 10.625 11.8125H7.45833ZM9.23958 3.50001H7.45833H7.42617L8.2871 2.03543C8.47513 1.71629 8.81653 1.52084 9.18515 1.52084H9.23958C9.78632 1.52084 10.2292 1.96368 10.2292 2.51043C10.2292 3.05717 9.78632 3.50001 9.23958 3.50001ZM5.875 3.50001H4.09374C3.547 3.50001 3.10416 3.05717 3.10416 2.51043C3.10416 1.96368 3.547 1.52084 4.09374 1.52084H4.14817C4.51679 1.52084 4.86067 1.71629 5.04622 2.03543L5.90716 3.50001H5.875Z" fill="white"/>
</svg>
