<svg width="18" height="19" viewBox="0 0 18 19" fill="none" xmlns="http://www.w3.org/2000/svg">
<path fill-rule="evenodd" clip-rule="evenodd" d="M6.34822 3C6.16081 3 5.9783 3.07567 5.84158 3.21487C5.70442 3.35453 5.625 3.54677 5.625 3.75C5.625 3.95323 5.70442 4.14547 5.84158 4.28513C5.9783 4.42433 6.16081 4.5 6.34822 4.5H7.97569C7.9214 4.37149 7.85893 4.23837 7.78767 4.10645C7.42327 3.43186 6.95548 3 6.34822 3ZM8.25 6V8.25L2.7 8.25C2.47761 8.25 2.35592 8.24942 2.26848 8.24227C2.265 8.24199 2.2617 8.2417 2.25859 8.24141C2.2583 8.2383 2.25802 8.23501 2.25773 8.23152C2.25059 8.14409 2.25 8.0224 2.25 7.8V6.45C2.25 6.2276 2.25059 6.10591 2.25773 6.01848C2.25802 6.01499 2.2583 6.0117 2.25859 6.00859C2.2617 6.0083 2.265 6.00801 2.26848 6.00773C2.35592 6.00058 2.47761 6 2.7 6H8.25ZM4.25215 4.5C4.16866 4.261 4.125 4.00754 4.125 3.75C4.125 3.15758 4.35601 2.58676 4.77141 2.16381C5.18726 1.7404 5.75418 1.5 6.34822 1.5C7.69425 1.5 8.52941 2.41384 9 3.20417C9.4706 2.41384 10.3058 1.5 11.6518 1.5C12.2458 1.5 12.8127 1.7404 13.2286 2.16381C13.644 2.58676 13.875 3.15758 13.875 3.75C13.875 4.00754 13.8313 4.261 13.7479 4.5L15.3239 4.5C15.5132 4.49998 15.6976 4.49995 15.8537 4.51271C16.0251 4.52672 16.2274 4.55977 16.431 4.66349C16.7132 4.8073 16.9427 5.03677 17.0865 5.31901C17.1902 5.52258 17.2233 5.72488 17.2373 5.89633C17.25 6.05244 17.25 6.23678 17.25 6.42606V7.82394C17.25 8.01322 17.25 8.19756 17.2373 8.35367C17.2233 8.52512 17.1902 8.72742 17.0865 8.93099C16.9427 9.21323 16.7132 9.4427 16.431 9.58651C16.2274 9.69023 16.0251 9.72328 15.8537 9.73729C15.8203 9.74002 15.7857 9.74216 15.75 9.74384V14.8789C15.75 15.2743 15.75 15.6153 15.7271 15.8963C15.7029 16.1928 15.6494 16.4877 15.5048 16.7715C15.2891 17.1948 14.9448 17.5391 14.5215 17.7548C14.2377 17.8994 13.9428 17.9528 13.6463 17.9771C13.3653 18 13.0243 18 12.6289 18H9.00105C9.0007 18 9.00035 18 9 18C8.99965 18 8.9993 18 8.99896 18H5.37108C4.97572 18 4.63466 18 4.35373 17.9771C4.05722 17.9528 3.76231 17.8994 3.47852 17.7548C3.05516 17.539 2.71095 17.1948 2.49524 16.7715C2.35064 16.4877 2.29716 16.1928 2.27293 15.8963C2.24998 15.6153 2.24999 15.2743 2.25 14.8789L2.25 9.74384C2.21431 9.74216 2.17968 9.74002 2.14633 9.73729C1.97489 9.72328 1.77259 9.69023 1.56902 9.58651C1.28678 9.4427 1.0573 9.21323 0.913494 8.93099C0.809771 8.72742 0.77672 8.52512 0.762713 8.35367C0.749957 8.19755 0.749979 8.01321 0.750002 7.82392L0.750004 6.45C0.750004 6.44202 0.750003 6.43404 0.750002 6.42608C0.74998 6.23679 0.749957 6.05245 0.762713 5.89633C0.776721 5.72488 0.809771 5.52258 0.913494 5.31901C1.0573 5.03677 1.28678 4.8073 1.56902 4.66349C1.77259 4.55977 1.97489 4.52672 2.14633 4.51271C2.30245 4.49995 2.48679 4.49998 2.67608 4.5C2.68405 4.5 2.69202 4.5 2.7 4.5H4.25215ZM3.75 9.75V14.85C3.75 15.2824 3.75059 15.5616 3.76795 15.7741C3.7846 15.9779 3.81285 16.0534 3.83175 16.0905C3.90365 16.2316 4.01839 16.3463 4.15951 16.4183C4.19659 16.4371 4.27213 16.4654 4.47588 16.4821C4.68838 16.4994 4.96759 16.5 5.4 16.5H8.25V9.75H3.75ZM9.75 9.75V16.5H12.6C13.0324 16.5 13.3116 16.4994 13.5241 16.4821C13.7279 16.4654 13.8034 16.4371 13.8405 16.4183C13.9816 16.3463 14.0964 16.2316 14.1683 16.0905C14.1872 16.0534 14.2154 15.9779 14.2321 15.7741C14.2494 15.5616 14.25 15.2824 14.25 14.85V9.75H9.75ZM15.3 8.25C15.5224 8.25 15.6441 8.24942 15.7315 8.24227C15.735 8.24199 15.7383 8.24169 15.7414 8.24141C15.7417 8.2383 15.742 8.235 15.7423 8.23152C15.7494 8.14409 15.75 8.0224 15.75 7.8V6.45C15.75 6.2276 15.7494 6.10591 15.7423 6.01848C15.742 6.015 15.7417 6.0117 15.7414 6.00859C15.7383 6.0083 15.735 6.00801 15.7315 6.00773C15.6441 6.00058 15.5224 6 15.3 6H9.75V8.25H15.3ZM11.6518 4.5C11.8392 4.5 12.0217 4.42433 12.1584 4.28513C12.2956 4.14547 12.375 3.95323 12.375 3.75C12.375 3.54677 12.2956 3.35453 12.1584 3.21487C12.0217 3.07567 11.8392 3 11.6518 3C11.0445 3 10.5767 3.43186 10.2123 4.10645C10.1411 4.23837 10.0786 4.37149 10.0243 4.5H11.6518Z" fill="#F0592A"/>
</svg>
