<svg width="60" height="60" viewBox="0 0 60 60" fill="none" xmlns="http://www.w3.org/2000/svg">
<path d="M10 35.9104H11.547V43.3793H14.2136V44.8536H10.0065L10 35.9104Z" fill="#000083"/>
<path d="M17.796 38.151C18.6156 38.1407 19.3925 38.5155 19.8965 39.1641V38.2841H21.3397V44.8665H19.8965V43.9864C19.3925 44.635 18.6156 45.0099 17.796 44.9996C15.9966 44.9996 14.6309 43.4571 14.6309 41.5737C14.6309 39.6902 15.9966 38.151 17.796 38.151ZM18.0583 39.4694C16.8899 39.4694 16.1163 40.3916 16.1163 41.5737C16.1163 42.7557 16.9027 43.6812 18.0583 43.6812C19.2136 43.6812 20 42.7589 20 41.5737C20 40.3884 19.2264 39.4694 18.0583 39.4694Z" fill="#000083"/>
<path d="M22.463 43.7235L25.9032 39.5994H22.5147V38.2842H27.7673V39.4435L24.3401 43.5514H27.845V44.8665H22.463V43.7235Z" fill="#000083"/>
<path d="M31.5151 38.151C32.3344 38.1407 33.1116 38.5155 33.6153 39.1641V38.2841H35.0588V44.8665H33.6153V43.9864C33.1116 44.635 32.3344 45.0099 31.5151 44.9996C29.7157 44.9996 28.353 43.4571 28.353 41.5737C28.353 39.6902 29.7157 38.151 31.5151 38.151ZM31.7771 39.4694C30.6087 39.4694 29.8354 40.3916 29.8354 41.5737C29.8354 42.7557 30.6218 43.6812 31.7771 43.6812C32.9325 43.6812 33.7189 42.7589 33.7189 41.5737C33.7189 40.3884 32.9455 39.4694 31.7771 39.4694Z" fill="#000083"/>
<path d="M39.1818 38.1511C40.0005 38.1403 40.7767 38.5154 41.279 39.1642V35.3811H42.7223V44.8666H41.279V43.9866C40.7767 44.6354 40.0005 45.0105 39.1818 44.9997C37.3825 44.9997 36.0167 43.4572 36.0167 41.5738C36.0167 39.6903 37.3825 38.1511 39.1818 38.1511ZM39.4439 39.4695C38.2755 39.4695 37.5021 40.3918 37.5021 41.5738C37.5021 42.7558 38.2919 43.6813 39.4439 43.6813C40.5962 43.6813 41.3857 42.7591 41.3857 41.5738C41.3857 40.3885 40.6123 39.4695 39.4439 39.4695Z" fill="#000083"/>
<path d="M46.8453 38.151C47.664 38.1402 48.4405 38.5153 48.9425 39.1641V38.2841H50.3827V44.8665H48.9361V43.9865C48.4338 44.6353 47.6576 45.0104 46.8389 44.9996C45.0396 44.9996 43.6738 43.4571 43.6738 41.5737C43.6738 39.6902 45.046 38.151 46.8453 38.151ZM47.1076 39.4694C45.9393 39.4694 45.1656 40.3917 45.1656 41.5737C45.1656 42.7557 45.9554 43.6812 47.1076 43.6812C48.2597 43.6812 49.0494 42.7589 49.0494 41.5737C49.0494 40.3884 48.2758 39.4694 47.1076 39.4694Z" fill="#000083"/>
<path d="M30.1513 31.9568C29.9948 31.9579 29.8408 31.9177 29.7046 31.8403C28.5387 31.1634 19.9034 25.7306 19.5773 25.5648C19.3291 25.4486 19.1597 25.2105 19.1306 24.9372V17.317C19.1242 17.0326 19.2643 16.7649 19.5014 16.6088L19.5639 16.5729C20.3993 16.053 23.1958 14.3407 23.638 14.0941C23.7395 14.0337 23.8551 14.0012 23.9731 14C24.0837 14.0013 24.1924 14.0289 24.2903 14.0807C24.2903 14.0807 28.2036 16.6402 28.8022 16.8688C29.2222 17.0624 29.6802 17.1589 30.1424 17.1512C30.6661 17.1622 31.1836 17.0354 31.6434 16.7836C32.2286 16.4743 35.9677 14.0941 36.0079 14.0941C36.1022 14.037 36.2105 14.0075 36.3206 14.009C36.4387 14.0095 36.5544 14.0421 36.6557 14.1031C37.165 14.3855 40.6315 16.5147 40.779 16.6088C41.0228 16.7564 41.1706 17.0224 41.1676 17.3081V24.9283C41.1403 25.2022 40.9703 25.441 40.7209 25.5558C40.3948 25.7351 31.7864 31.1679 30.598 31.8313C30.4628 31.9119 30.3087 31.9552 30.1513 31.9568Z" fill="url(#paint0_linear_233_27727)"/>
<path d="M30.1068 31.9566L30.1515 31.9565C30.308 31.9576 30.462 31.9174 30.5982 31.84C31.7642 31.1631 40.3949 25.7304 40.721 25.5645C40.9704 25.4497 41.1404 25.2109 41.1678 24.937V17.3167C41.1692 17.1877 41.1401 17.0602 41.0829 16.9447L30.1068 22.9916V31.9566Z" fill="url(#paint1_linear_233_27727)"/>
<path d="M30.0686 31.8491L30.0244 31.8491C29.8696 31.8501 29.7172 31.8104 29.5825 31.7338C28.4289 31.0641 19.8901 25.6893 19.5675 25.5252C19.3208 25.4116 19.1525 25.1753 19.1255 24.9043V17.3653C19.1241 17.2376 19.1528 17.1115 19.2095 16.9972L30.0686 22.9796V31.8491Z" fill="url(#paint2_linear_233_27727)"/>
<defs>
<linearGradient id="paint0_linear_233_27727" x1="19.117" y1="14.1641" x2="40.9517" y2="13.9955" gradientUnits="userSpaceOnUse">
<stop offset="1e-07" stop-color="#FF9200"/>
<stop offset="0.337553" stop-color="#F36D00"/>
<stop offset="0.56729" stop-color="#F83C72"/>
<stop offset="0.78" stop-color="#FC1CBE"/>
<stop offset="0.93" stop-color="#FE08ED"/>
<stop offset="1" stop-color="#FF00FF"/>
</linearGradient>
<linearGradient id="paint1_linear_233_27727" x1="25.2511" y1="30.0826" x2="47.548" y2="17.7789" gradientUnits="userSpaceOnUse">
<stop stop-color="#EE0A3F"/>
<stop offset="1" stop-color="#EE0A3F" stop-opacity="0"/>
</linearGradient>
<linearGradient id="paint2_linear_233_27727" x1="27.4175" y1="26.8595" x2="16.6315" y2="18.2003" gradientUnits="userSpaceOnUse">
<stop stop-color="#ED6600"/>
<stop offset="1" stop-color="#F98200"/>
</linearGradient>
</defs>
</svg>
