<svg xmlns="http://www.w3.org/2000/svg" width="35" height="46" viewBox="0 0 35 46" fill="none"><path d="M31.909 16.8462C31.909 24.5077 17.4545 43 17.4545 43C17.4545 43 3 24.5077 3 16.8462C3 13.1739 4.52288 9.6521 7.23362 7.05544C9.94437 4.45879 13.6209 3 17.4545 3C21.2881 3 24.9646 4.45879 27.6754 7.05544C30.3861 9.6521 31.909 13.1739 31.909 16.8462V16.8462Z" stroke="black" stroke-width="5" stroke-linecap="round" stroke-linejoin="round"></path><path d="M17.4502 23C20.2116 23 22.4502 20.7614 22.4502 18C22.4502 15.2386 20.2116 13 17.4502 13C14.6888 13 12.4502 15.2386 12.4502 18C12.4502 20.7614 14.6888 23 17.4502 23Z" stroke="black" stroke-width="5" stroke-linecap="round" stroke-linejoin="round"></path></svg>