<svg width="101" height="114" viewBox="0 0 101 114" fill="none" xmlns="http://www.w3.org/2000/svg">
<g clip-path="url(#clip0_31_1133)">
<path d="M97.6559 69.3002C103.815 43.2038 87.653 17.0553 61.5566 10.896C35.4602 4.73672 9.31173 20.8989 3.15242 46.9953C-3.00689 73.0918 13.1553 99.2402 39.2517 105.399C65.3481 111.559 91.4966 95.3966 97.6559 69.3002Z" fill="#929497"/>
<mask id="mask0_31_1133" style="mask-type:luminance" maskUnits="userSpaceOnUse" x="-1" y="-2" width="103" height="109">
<path d="M101.343 55.5742C101.343 58.5242 100.493 66.0442 99.9835 68.8542C98.4035 77.6342 92.2435 83.5442 86.6235 90.0042C77.7235 100.234 64.6035 106.704 49.9835 106.704C24.9035 106.704 4.26349 87.6842 1.70349 63.2942C1.52349 61.6042 -0.0465088 57.3142 -0.0465088 55.5842C-0.0465088 28.7642 21.7935 -3.87579 48.5335 -1.91579C89.5735 1.10421 101.343 28.7542 101.343 55.5642V55.5742Z" fill="white"/>
</mask>
<g mask="url(#mask0_31_1133)">
<path d="M41.8034 94.5046L33.1334 90.7646L31.5234 94.3146L41.8034 94.5046Z" fill="#FB9F00"/>
<path d="M72.2734 87.2543L24.4334 72.1143L21.7634 90.4943C25.1034 91.1343 27.2434 94.2243 27.2434 94.2243C27.2434 94.2243 32.1134 112.154 33.8934 116.784C35.6734 121.414 38.9334 125.824 43.1634 125.604C47.3934 125.374 46.9234 120.584 46.7034 118.144C46.4834 115.694 48.1934 115.834 50.4834 115.784C52.7734 115.744 53.0934 117.194 53.0334 118.594C52.4434 127.064 54.6134 126.204 56.1934 126.474C63.6534 127.014 65.2734 111.394 65.3234 110.804C68.6934 110.694 72.1434 105.694 72.1434 105.694C75.1034 97.5043 72.2734 87.2643 72.2734 87.2643V87.2543Z" fill="#FB9F00"/>
<path d="M63.3634 92.5043C63.3634 92.5043 66.1634 109.894 53.0434 110.804C50.4534 111.014 38.7834 112.544 35.4734 102.724C34.7434 101.154 33.3934 95.1543 33.9634 91.4043C34.7934 91.7643 50.5634 96.6143 63.3634 92.5043Z" fill="white"/>
<path d="M74.4635 83.6545C74.4635 84.5945 65.7935 86.7545 65.2135 86.8645C56.8535 88.4345 50.0335 88.6345 41.4035 87.9145C35.7035 87.4445 28.0835 84.0645 22.5635 82.6445C25.1535 88.4345 31.2035 90.1445 36.0935 91.7445C44.9335 94.6445 57.4635 95.6745 66.9135 91.0745C69.4435 89.8445 72.7235 86.7645 74.4535 83.6545H74.4635Z" fill="#C01722"/>
<path d="M51.2035 94.605C50.5835 94.605 50.0435 94.605 49.5935 94.585C27.8135 93.455 22.7635 84.845 22.5635 84.475L23.1735 83.585C23.2235 83.665 28.5335 92.435 49.6335 93.535C66.6835 93.855 72.1635 86.375 73.9635 83.925L74.0435 83.815L74.8835 84.435L74.8035 84.545C67.9935 93.845 56.6135 94.605 51.2035 94.605Z" fill="#3E2411"/>
<g style="mix-blend-mode:multiply" opacity="0.37">
<path d="M54.0734 91.1047C54.0734 91.2647 53.9334 91.4047 53.7734 91.4047C53.6134 91.4047 53.4734 91.2747 53.4734 91.1047C53.4734 90.9347 53.6134 90.8047 53.7734 90.8047C53.9334 90.8047 54.0734 90.9347 54.0734 91.1047Z" fill="#A3A2A2"/>
</g>
<path d="M54.2934 92.0251C54.2934 94.5251 52.2234 96.5551 49.6734 96.5551C47.1234 96.5551 45.0534 94.5251 45.0534 92.0251C45.0534 89.5251 47.1234 87.4951 49.6734 87.4951C52.2234 87.4951 54.2934 89.5251 54.2934 92.0251Z" fill="#FFDB00"/>
<path d="M49.6834 96.9947C46.8934 96.9947 44.6234 94.7647 44.6234 92.0247C44.6234 89.2847 46.8934 87.0547 49.6834 87.0547C52.4734 87.0547 54.7434 89.2847 54.7434 92.0247C54.7434 94.7647 52.4734 96.9947 49.6834 96.9947ZM49.6834 87.9347C47.3734 87.9347 45.4934 89.7747 45.4934 92.0347C45.4934 94.2947 47.3734 96.1347 49.6834 96.1347C51.9934 96.1347 53.8734 94.2947 53.8734 92.0347C53.8734 89.7747 51.9934 87.9347 49.6834 87.9347Z" fill="#3E2411"/>
<path d="M67.6934 94.3342C67.6434 94.0042 67.3234 93.7742 66.9934 93.8242C66.6634 93.8742 66.4334 94.1842 66.4834 94.5242C67.3134 99.8542 65.0034 109.964 63.6234 115.994C63.3534 117.184 63.1134 118.214 62.9434 119.014C62.0134 123.474 58.9434 126.274 55.4734 125.814C53.2034 125.514 53.2934 122.534 53.6134 119.254C53.6734 118.654 53.7234 118.144 53.7334 117.724C53.7534 116.934 53.5734 116.384 53.1834 115.994C52.5334 115.354 51.4834 115.384 50.0334 115.434C49.4434 115.454 48.7834 115.474 48.0334 115.464C47.5134 115.444 47.1034 115.614 46.7834 115.924C46.0634 116.634 46.0734 117.954 46.0934 119.484C46.1134 121.224 46.1334 123.204 45.0434 124.234C44.3834 124.854 43.3534 125.114 41.9034 125.014C36.9034 124.674 33.1634 114.234 30.8934 106.004H29.6134C32.0234 114.914 35.9134 125.824 41.8234 126.224C43.6334 126.344 44.9634 125.984 45.8834 125.114C47.3534 123.724 47.3334 121.364 47.3134 119.474C47.3034 118.384 47.2834 117.144 47.6434 116.784C47.6934 116.734 47.7934 116.684 48.0134 116.674C48.7934 116.694 49.4734 116.674 50.0834 116.644C51.1434 116.614 52.0634 116.574 52.3434 116.854C52.4734 116.984 52.5334 117.264 52.5234 117.694C52.5234 118.074 52.4734 118.564 52.4134 119.134C52.1534 121.904 51.7134 126.544 55.3334 127.024C55.6434 127.064 55.9434 127.084 56.2434 127.084C59.9834 127.084 63.1634 123.994 64.1534 119.264C64.3234 118.464 64.5534 117.444 64.8234 116.264C66.2234 110.144 68.5734 99.8942 67.7034 94.3342H67.6934Z" fill="#3E2411"/>
<path d="M41.9034 101.404C41.8534 101.404 41.8034 101.364 41.8034 101.304C41.8034 101.244 41.8434 101.204 41.9034 101.204L56.7734 101.074C56.8234 101.074 56.8734 101.114 56.8734 101.174C56.8734 101.234 56.8334 101.274 56.7734 101.274L41.8934 101.404H41.9034Z" fill="#E70000"/>
<path d="M45.9134 102.254L44.8234 107.584L43.4434 107.594L43.0734 104.684L42.5634 107.604L41.3834 107.614L42.4634 102.284L43.7834 102.274L44.1534 105.184L44.6434 102.264L45.9134 102.254Z" fill="#3E2411"/>
<path d="M54.0934 104.814L53.5434 107.554H52.5434L53.0534 105.184V105.154C53.0534 105.094 53.0334 105.044 52.9934 105.024C52.9534 104.994 52.9034 104.984 52.8434 104.984C52.7634 104.984 52.6934 105.014 52.6234 105.054C52.5534 105.104 52.5234 105.164 52.5234 105.244L52.0134 107.574H51.0634L51.7434 104.264H52.6434L52.5634 104.674C52.6534 104.504 52.7834 104.374 52.9434 104.274C53.0234 104.224 53.0934 104.194 53.1634 104.174C53.2334 104.154 53.3034 104.144 53.3834 104.144C53.5634 104.144 53.7234 104.194 53.8734 104.304C54.0134 104.414 54.0834 104.544 54.0934 104.694V104.814Z" fill="#3E2411"/>
<path d="M56.5734 104.224L56.4434 104.924H55.9634L55.6434 106.484L55.6134 106.644L55.5934 106.754C55.5934 106.824 55.6234 106.864 55.6934 106.864L55.8234 106.844L56.0134 106.804L55.8734 107.504L55.4434 107.584L55.1934 107.604C55.0034 107.604 54.8434 107.564 54.7334 107.484C54.5934 107.394 54.5234 107.244 54.5234 107.044L54.5434 106.884L54.5734 106.724L54.9334 104.944H54.5534L54.6834 104.244H55.0634L55.2534 103.264H56.2434L56.0634 104.234H56.5434L56.5734 104.224Z" fill="#3E2411"/>
<path d="M48.1535 108.974C47.3035 108.974 46.5035 108.584 46.0135 107.904C45.6235 107.354 45.4635 106.684 45.5835 106.014C45.7035 105.344 46.0734 104.764 46.6434 104.374C47.0734 104.074 47.5834 103.924 48.1134 103.914C48.9634 103.914 49.7634 104.304 50.2534 104.984C50.6534 105.534 50.8034 106.204 50.6834 106.874C50.5634 107.544 50.1934 108.124 49.6234 108.514C49.1934 108.814 48.6835 108.974 48.1535 108.974ZM48.1035 104.214C47.6435 104.214 47.1935 104.354 46.8135 104.624C46.3135 104.964 45.9834 105.474 45.8834 106.064C45.7834 106.654 45.9235 107.244 46.2635 107.724C46.6935 108.324 47.3934 108.674 48.1434 108.674C48.6034 108.674 49.0534 108.524 49.4334 108.264C49.9334 107.924 50.2634 107.414 50.3634 106.824C50.4634 106.234 50.3334 105.644 49.9834 105.164C49.5534 104.564 48.8535 104.214 48.1035 104.214Z" fill="#F00E00"/>
<path d="M50.1634 105.044C49.3734 103.944 47.8334 103.684 46.7034 104.454C45.5834 105.224 45.3134 106.744 46.1034 107.834C46.8934 108.934 48.4434 109.194 49.5634 108.424C50.6834 107.654 50.9534 106.134 50.1634 105.044ZM48.4434 104.434C48.4434 104.434 49.4534 104.494 49.9834 105.604C49.9834 105.604 49.5934 105.914 48.8134 105.884C48.8134 105.884 48.4834 105.894 48.4334 105.424C48.4334 105.424 48.2934 104.614 48.4334 104.434M48.5834 106.174C48.5834 106.174 48.7034 106.154 48.7334 106.194C48.7734 106.244 48.7634 106.314 48.7134 106.344C48.6634 106.374 48.5934 106.364 48.5634 106.324C48.5334 106.274 48.5434 106.214 48.5934 106.174M48.5234 106.974C48.5234 106.974 48.4034 106.994 48.3734 106.944C48.3334 106.894 48.3534 106.834 48.3934 106.794C48.4434 106.764 48.5134 106.774 48.5434 106.814C48.5734 106.864 48.5634 106.924 48.5134 106.964M48.4034 106.214C48.5234 106.374 48.4734 106.594 48.3134 106.714C48.1434 106.824 47.9234 106.784 47.8034 106.624C47.6834 106.464 47.7234 106.244 47.8934 106.124C48.0634 106.014 48.2834 106.054 48.4034 106.214ZM47.7234 106.784C47.7234 106.784 47.8334 106.764 47.8734 106.814C47.9034 106.854 47.8934 106.924 47.8434 106.954C47.7934 106.984 47.7234 106.974 47.6934 106.934C47.6534 106.884 47.6734 106.824 47.7234 106.784ZM47.6534 106.344C47.6034 106.374 47.5334 106.364 47.5034 106.324C47.4734 106.274 47.4834 106.214 47.5334 106.184C47.5834 106.154 47.6534 106.164 47.6834 106.204C47.7134 106.254 47.7034 106.314 47.6634 106.344M48.0734 105.794C48.0734 105.794 48.1834 105.774 48.2234 105.824C48.2534 105.874 48.2434 105.934 48.1934 105.964C48.1434 105.994 48.0734 105.984 48.0434 105.944C48.0034 105.904 48.0234 105.834 48.0734 105.794ZM47.8434 104.424C47.8434 104.424 48.0434 104.874 47.7934 105.604C47.7934 105.604 47.7134 105.914 47.2334 105.834C47.2334 105.834 46.3934 105.744 46.2634 105.554C46.2634 105.554 46.6034 104.624 47.8434 104.434M46.7134 107.894C46.7134 107.894 45.9134 107.294 46.1134 106.074C46.1134 106.074 46.6134 106.034 47.2434 106.484C47.2434 106.484 47.5234 106.654 47.2934 107.074C47.2934 107.074 46.9434 107.824 46.7134 107.894ZM47.1534 108.194C47.1534 108.194 47.2834 107.714 47.9334 107.294C47.9334 107.294 48.1834 107.094 48.5134 107.454C48.5134 107.454 49.1134 108.034 49.1034 108.264C49.1034 108.264 48.2634 108.794 47.1534 108.204M49.4934 107.904C49.4934 107.904 49.0734 107.634 48.8734 106.884C48.8734 106.884 48.7634 106.584 49.2134 106.404C49.2134 106.404 49.9634 106.024 50.1834 106.114C50.1834 106.114 50.4234 107.064 49.5034 107.904" fill="#F00E00"/>
<path d="M60.7034 90.6545C64.0134 90.6145 67.3034 90.3745 70.5734 89.8745C76.7734 88.9245 83.2434 86.8345 88.2334 83.0045C93.3634 79.0745 97.1834 73.2545 98.2134 66.8845C99.0334 61.8345 99.2134 55.5745 98.2634 50.5345C96.3234 41.4045 93.4134 32.6245 89.9734 23.9345C88.2234 19.5045 84.7234 12.5745 79.5134 16.7345C79.5134 16.7345 75.2234 20.1745 73.9034 22.5345C72.9934 24.1545 63.8134 18.7445 55.1234 17.5445C46.1434 16.3145 36.9034 19.1045 36.9034 19.1045C36.0934 16.4745 31.3734 10.2245 31.3734 10.2245C27.3834 4.8845 23.2534 11.3645 20.0234 14.9945C16.9234 18.4745 11.9634 23.1545 5.32341 38.6545C3.30341 43.3745 1.74341 49.4045 1.26341 54.4945C0.933408 58.0545 2.28341 62.8445 3.47341 66.1845C4.80341 69.8945 6.79341 73.4545 9.90341 75.9245C16.5534 81.2145 26.0834 84.6445 34.7634 86.5745C43.4134 88.5045 51.7434 90.7445 60.6734 90.6445L60.7034 90.6545Z" fill="#FB9F00"/>
<path d="M49.0435 90.0648C30.4835 87.6948 15.6335 80.1148 15.4135 80.0048L15.9935 78.8848C16.3135 79.0548 48.6935 95.5648 77.3735 87.0948L77.7335 88.3048C68.1335 91.1348 58.1435 91.2248 49.0535 90.0648H49.0435Z" fill="#3E2411"/>
<path d="M53.2035 17.3851C53.2035 17.3851 46.8035 69.0451 2.68347 44.0351C2.68347 44.0351 5.94347 36.9451 9.43347 30.6851C12.9235 24.4251 21.6635 9.43512 27.2435 7.99512C28.0835 8.13512 32.5735 8.70512 37.6035 19.0551C41.6835 18.0151 53.2035 17.3851 53.2035 17.3851Z" fill="#80460F"/>
<path d="M68.3434 21.5346C68.3434 21.5346 70.9334 40.5646 94.7234 36.9246C94.7234 36.9246 89.7334 17.6646 84.3734 15.4346C82.5134 15.1446 79.6134 14.0346 72.3834 23.1746C72.1334 23.4646 68.3434 21.5346 68.3434 21.5346Z" fill="#80460F"/>
<path d="M64.4134 19.7145C64.4434 19.6345 64.4534 19.5545 64.4734 19.4745L63.0034 19.2845L63.0534 18.8845L59.5834 18.4445C59.4634 18.6345 59.3534 18.8345 59.2834 19.0545L58.8734 20.3445C58.8734 20.3445 58.7034 20.7545 58.4534 21.4045L53.3534 20.7545C53.3334 20.5245 53.3134 20.3245 53.2934 20.1645L53.2234 18.2845C53.2234 18.1045 53.1734 17.9245 53.1334 17.7445L48.1434 17.1045C48.1034 17.2745 48.0934 17.4445 48.0934 17.6245L48.2934 20.8745C48.2934 20.8745 48.0434 29.1045 51.3334 29.1645C52.7934 29.1945 53.3334 27.3045 53.4834 25.2045H53.5034V24.9645C53.5034 24.8245 53.5134 24.6945 53.5234 24.5545L57.3734 25.0445C56.8534 27.3345 56.7634 29.6745 58.3534 30.0545C60.1434 30.4845 61.4934 28.2645 62.3634 26.1745H62.3934L62.5034 25.8145C63.1034 24.2745 63.4234 22.9045 63.4434 22.8145L64.4234 19.6945L64.4134 19.7145Z" fill="#3E2411"/>
<path d="M76.6534 88.6047L76.4434 87.3547C91.0534 84.9047 100.423 70.7347 98.2334 54.4047C96.1334 38.6947 90.2734 25.0647 87.8534 19.9247C86.9034 17.9047 85.6734 16.5947 84.2934 16.1347C83.2934 15.7947 82.2034 15.9247 81.0734 16.5047C77.8634 18.1647 73.0034 23.9847 72.9534 24.0447C72.7434 24.2947 72.3834 24.3447 72.1134 24.1647C56.1834 13.6047 37.2934 19.6347 37.1134 19.6947C36.8034 19.7947 36.4734 19.6447 36.3334 19.3547C35.0734 16.4847 31.1034 9.02466 28.0634 8.91466C24.6634 8.78466 22.8734 11.3047 21.5634 13.1447C21.4234 13.3447 21.2834 13.5347 21.1534 13.7047L20.9234 14.0147C15.9534 20.6847 4.24343 37.3547 2.78343 47.9447C1.03343 60.7747 2.73343 71.0247 16.7434 79.3347L16.1034 80.4247C0.653434 71.2647 -0.0165659 59.3247 1.56343 47.7847C3.05343 36.8947 14.9134 20.0247 19.9334 13.2647L20.1534 12.9647C20.2734 12.7947 20.4134 12.6147 20.5434 12.4147C21.9334 10.4547 24.0434 7.49466 28.1234 7.65466C32.1134 7.81466 36.1934 16.0147 37.2734 18.3447C40.5134 17.4347 57.5534 13.3247 72.3534 22.8147C73.5734 21.3947 77.5634 16.9047 80.5034 15.3847C81.9534 14.6347 83.3734 14.4847 84.7134 14.9347C86.4234 15.5147 87.9034 17.0547 89.0034 19.3847C91.4434 24.5747 97.3634 38.3447 99.4934 54.2347C101.773 71.2547 91.9534 86.0247 76.6534 88.5947V88.6047Z" fill="#3E2411"/>
<path fill-rule="evenodd" clip-rule="evenodd" d="M34.4734 38.1751C34.2034 38.2251 33.9034 38.1851 33.5934 38.0351C31.8934 37.1651 30.2334 36.2251 28.5734 35.2651C28.5734 35.2651 28.5534 35.2551 28.5534 35.2451C24.3534 35.2551 20.3534 38.6751 19.6034 43.1551C18.8934 47.4651 21.2534 51.0451 25.2334 51.7051C29.9134 52.4751 34.6434 48.7851 35.5334 43.6851C35.9034 41.5851 35.4834 39.6651 34.4634 38.1851L34.4734 38.1751Z" fill="white"/>
<path fill-rule="evenodd" clip-rule="evenodd" d="M20.1134 47.6248C20.3934 47.6048 20.6834 47.6848 20.9734 47.8748C22.5534 48.9448 24.0934 50.0848 25.6134 51.2348C25.6134 51.2348 25.6234 51.2448 25.6334 51.2548C29.8034 51.7548 34.1934 48.8448 35.4734 44.4948C36.7134 40.3048 34.8034 36.4548 30.9234 35.3248C26.3734 33.9948 21.2234 37.0748 19.7234 42.0348C19.1034 44.0748 19.2834 46.0348 20.1134 47.6248Z" fill="white"/>
<path fill-rule="evenodd" clip-rule="evenodd" d="M20.9734 43.2144C21.6434 39.1744 25.5334 36.1644 29.3334 36.7344C32.7534 37.2444 34.7834 40.1445 34.1734 43.6545C33.4334 47.8745 29.5134 50.9344 25.6434 50.3044C22.3434 49.7644 20.3934 46.7945 20.9834 43.2245L20.9734 43.2144Z" fill="#363436"/>
<path fill-rule="evenodd" clip-rule="evenodd" d="M22.5134 43.2846C23.0234 40.1846 26.0034 37.8746 28.9234 38.3146C31.5434 38.7046 33.0934 40.9246 32.6234 43.6146C32.0634 46.8446 29.0534 49.1946 26.0934 48.7046C23.5634 48.2946 22.0634 46.0146 22.5134 43.2846Z" fill="#00000D"/>
<path fill-rule="evenodd" clip-rule="evenodd" d="M28.8635 44.425C28.9935 43.625 29.7735 43.035 30.5235 43.145C31.2035 43.245 31.6035 43.825 31.4835 44.515C31.3335 45.345 30.5535 45.955 29.7835 45.825C29.1235 45.715 28.7335 45.125 28.8535 44.425H28.8635Z" fill="white"/>
<path fill-rule="evenodd" clip-rule="evenodd" d="M78.5234 43.6748C75.6034 43.9348 72.6834 44.0948 69.7634 44.2548C68.4934 45.4248 67.6634 47.1148 67.4934 49.1648C67.0734 54.3248 70.7334 59.0848 75.4534 59.5248C79.4734 59.8948 82.6634 57.0148 83.0534 52.6648C83.3834 48.9948 81.4434 45.4448 78.5334 43.6748H78.5234Z" fill="white"/>
<path fill-rule="evenodd" clip-rule="evenodd" d="M71.4334 57.8444C74.3634 57.8244 77.2834 57.9044 80.2134 57.9844C81.5734 56.9244 82.5434 55.3044 82.8734 53.2744C83.7134 48.1644 80.4634 43.1244 75.7934 42.3044C71.8134 41.6044 68.4034 44.2144 67.6534 48.5144C67.0234 52.1444 68.6634 55.8344 71.4234 57.8444H71.4334Z" fill="white"/>
<path fill-rule="evenodd" clip-rule="evenodd" d="M75.2434 43.9948C75.0734 43.9748 74.9034 43.9648 74.7334 43.9648C74.3634 43.9848 73.9934 44.0048 73.6234 44.0348C70.9834 44.4248 69.0634 46.5148 68.8234 49.4848C68.4734 53.7548 71.5034 57.7048 75.4134 58.0648C78.7434 58.3748 81.3834 55.9848 81.7134 52.3848C82.0734 48.3048 79.0734 44.4148 75.2534 44.0048L75.2434 43.9948Z" fill="#363436"/>
<path fill-rule="evenodd" clip-rule="evenodd" d="M80.2034 52.0546C80.4834 48.9246 78.1834 45.9447 75.2534 45.6347C72.6134 45.3547 70.5634 47.1147 70.3334 49.8347C70.0634 53.1047 72.3834 56.1247 75.3834 56.4047C77.9334 56.6347 79.9634 54.8146 80.2034 52.0546Z" fill="#00000D"/>
<path fill-rule="evenodd" clip-rule="evenodd" d="M73.7634 51.5646C73.8334 50.7546 73.2334 49.9846 72.4734 49.9046C71.7834 49.8346 71.2534 50.2846 71.1934 50.9846C71.1234 51.8246 71.7334 52.6146 72.5034 52.6846C73.1734 52.7446 73.6934 52.2746 73.7534 51.5646H73.7634Z" fill="white"/>
<path d="M89.0034 28.5246C88.4934 25.2846 86.6234 20.9246 84.8934 18.5946C82.3134 15.1346 76.1134 22.9146 74.3834 25.3246C74.3834 25.3246 84.4434 23.4346 89.0134 28.5146L89.0034 28.5246Z" fill="#FFCC49"/>
<path d="M88.9334 29.0246C88.8134 29.0046 88.7034 28.9546 88.6134 28.8546C87.0734 27.1346 84.6934 26.0646 81.5234 25.6646C77.8834 25.1946 74.4934 25.8246 74.4634 25.8246C74.2534 25.8646 74.0434 25.7746 73.9334 25.5946C73.8234 25.4146 73.8234 25.1846 73.9534 25.0146C74.9534 23.6346 80.0934 16.7746 83.5634 17.2146C84.2534 17.3046 84.8434 17.6546 85.2934 18.2746C87.1434 20.7646 88.9934 25.2246 89.5034 28.4246C89.5434 28.6446 89.4234 28.8746 89.2134 28.9646C89.1234 29.0046 89.0234 29.0246 88.9234 29.0146L88.9334 29.0246ZM81.6534 24.6446C84.3434 24.9846 86.5234 25.7946 88.1634 27.0446C87.4334 24.2246 85.9334 20.8446 84.4734 18.8846C82.6834 16.4846 78.1634 21.2046 75.5234 24.6246C76.8834 24.4746 79.1934 24.3146 81.6634 24.6246L81.6534 24.6446Z" fill="#3E2411"/>
<path d="M19.3634 19.6239C20.6734 16.6239 23.5734 12.8739 25.8434 11.0539C29.2134 8.35391 33.2534 17.4439 34.3234 20.2139C34.3234 20.2139 25.0634 15.8539 19.3634 19.6339V19.6239Z" fill="#FFCC49"/>
<path d="M19.2935 20.1342C19.1935 20.1242 19.1035 20.0842 19.0335 20.0142C18.8635 19.8642 18.8035 19.6242 18.8935 19.4142C20.1935 16.4442 23.1035 12.5842 25.5135 10.6442C26.1135 10.1642 26.7635 9.96419 27.4535 10.0542C30.9235 10.4942 34.1735 18.4342 34.7935 20.0142C34.8735 20.2142 34.8235 20.4342 34.6635 20.5742C34.5135 20.7142 34.2835 20.7542 34.0935 20.6642C34.0635 20.6542 30.9435 19.1942 27.2935 18.7342C24.1335 18.3342 21.5535 18.7742 19.6235 20.0442C19.5235 20.1142 19.3935 20.1442 19.2735 20.1242L19.2935 20.1342ZM27.3235 11.0842C26.9135 11.0342 26.5235 11.1542 26.1535 11.4542C24.2535 12.9842 21.9435 15.8742 20.5335 18.4242C22.4335 17.6242 24.7535 17.3842 27.4335 17.7342C29.9035 18.0542 32.0935 18.7742 33.3735 19.2742C31.9435 15.9342 29.4635 11.3642 27.3235 11.0942V11.0842Z" fill="#3E2411"/>
<path d="M18.7635 56.0648C18.7635 56.0648 18.7135 56.0648 18.6835 56.0448C18.6135 56.0248 11.3235 54.0048 6.97345 53.5848C6.67345 53.5548 6.46345 53.2948 6.49345 53.0148C6.52345 52.7248 6.78345 52.5148 7.07345 52.5448C11.5135 52.9748 18.6635 54.9548 18.9735 55.0448C19.2535 55.1248 19.4235 55.4148 19.3435 55.6948C19.2735 55.9548 19.0235 56.1048 18.7635 56.0748V56.0648Z" fill="#3E2411"/>
<path d="M8.00347 59.6246C7.77347 59.5946 7.57347 59.4146 7.54347 59.1746C7.50347 58.8846 7.71347 58.6246 8.00347 58.5846C11.8035 58.0946 18.1835 58.5646 18.4435 58.5846C18.7335 58.6046 18.9635 58.8546 18.9435 59.1446C18.9235 59.4346 18.6635 59.6546 18.3735 59.6246C18.3035 59.6246 11.8435 59.1446 8.14346 59.6246C8.09346 59.6246 8.05347 59.6246 8.00347 59.6246Z" fill="#3E2411"/>
<path d="M9.32348 64.185C9.12348 64.185 8.94348 64.045 8.89348 63.845C8.83348 63.605 8.98348 63.365 9.22348 63.305C12.3735 62.555 17.7635 62.385 17.9935 62.375C18.2435 62.375 18.4535 62.555 18.4635 62.805C18.4635 63.055 18.2735 63.255 18.0335 63.265C17.9735 63.265 12.5035 63.445 9.44348 64.175C9.40348 64.175 9.36348 64.185 9.32348 64.185Z" fill="#3E2411"/>
<path d="M80.2634 66.9746C80.2634 66.9746 80.3134 66.9746 80.3434 66.9746C80.4234 66.9746 88.1434 66.8446 92.5634 67.5446C92.8734 67.5846 93.1434 67.3946 93.1934 67.0946C93.2434 66.8046 93.0334 66.5246 92.7334 66.4746C88.2234 65.7646 80.6434 65.8846 80.3234 65.8846C80.0234 65.8846 79.7834 66.1346 79.7934 66.4346C79.7934 66.7046 80.0034 66.9246 80.2734 66.9546L80.2634 66.9746Z" fill="#3E2411"/>
<path d="M89.9934 73.2746C90.2334 73.3046 90.4734 73.1746 90.5734 72.9446C90.6834 72.6746 90.5534 72.3546 90.2734 72.2446C86.6334 70.7846 80.2134 69.6146 79.9334 69.5646C79.6334 69.5146 79.3534 69.7046 79.2934 69.9946C79.2434 70.2846 79.4434 70.5646 79.7334 70.6246C79.7934 70.6346 86.3234 71.8246 89.8534 73.2446C89.8934 73.2646 89.9434 73.2746 89.9934 73.2846V73.2746Z" fill="#3E2411"/>
<path d="M87.5234 77.4442C87.7234 77.4942 87.9334 77.4042 88.0434 77.2142C88.1634 76.9942 88.0834 76.7242 87.8534 76.5942C84.9334 75.0442 79.6434 73.4842 79.4134 73.4242C79.1734 73.3542 78.9034 73.4842 78.8334 73.7242C78.7634 73.9642 78.9034 74.2142 79.1434 74.2942C79.1934 74.3142 84.5634 75.8942 87.4034 77.3942C87.4434 77.4142 87.4734 77.4242 87.5134 77.4342L87.5234 77.4442Z" fill="#3E2411"/>
<path d="M43.5134 100.525V98.0449H44.0934V98.9849H45.1734V98.0449H45.7534V100.525H45.1734V99.4249H44.0934V100.525H43.5134Z" fill="#E70000"/>
<path d="M47.9934 100.305C47.8234 100.495 47.5534 100.595 47.2034 100.595C46.8534 100.595 46.5834 100.495 46.4134 100.305C46.2434 100.115 46.1534 99.8848 46.1534 99.6148C46.1534 99.3448 46.2434 99.1248 46.4134 98.9248C46.5834 98.7348 46.8534 98.6348 47.2034 98.6348C47.5534 98.6348 47.8234 98.7348 47.9934 98.9248C48.1634 99.1148 48.2534 99.3448 48.2534 99.6148C48.2534 99.8848 48.1634 100.115 47.9934 100.305ZM47.5634 100.035C47.6434 99.9348 47.6934 99.7948 47.6934 99.6148C47.6934 99.4348 47.6534 99.2948 47.5634 99.1948C47.4834 99.0948 47.3534 99.0448 47.2034 99.0448C47.0534 99.0448 46.9234 99.0948 46.8434 99.1948C46.7534 99.2948 46.7134 99.4348 46.7134 99.6148C46.7134 99.7948 46.7534 99.9348 46.8434 100.035C46.9234 100.135 47.0534 100.185 47.2034 100.185C47.3534 100.185 47.4834 100.135 47.5634 100.035Z" fill="#E70000"/>
<path d="M50.3034 98.805C50.4334 98.905 50.5034 99.065 50.5034 99.295V100.525H49.9534V99.415C49.9534 99.315 49.9434 99.245 49.9134 99.195C49.8634 99.095 49.7634 99.055 49.6134 99.055C49.4334 99.055 49.3034 99.125 49.2434 99.265C49.2034 99.335 49.1934 99.435 49.1934 99.545V100.535H48.6534V98.705H49.1734V98.975C49.2434 98.885 49.3034 98.815 49.3734 98.775C49.4834 98.705 49.6234 98.665 49.7934 98.665C50.0034 98.665 50.1834 98.715 50.3134 98.815L50.3034 98.805Z" fill="#E70000"/>
<path d="M52.0934 98.7247C52.1934 98.7747 52.2734 98.8447 52.3334 98.9247V98.0547H52.8834V100.525H52.3634V100.275C52.2834 100.385 52.1934 100.465 52.1034 100.515C52.0034 100.565 51.8834 100.585 51.7334 100.585C51.4934 100.585 51.2934 100.495 51.1234 100.325C50.9634 100.155 50.8734 99.9247 50.8734 99.6547C50.8734 99.3447 50.9534 99.0947 51.1134 98.9147C51.2734 98.7347 51.4934 98.6447 51.7634 98.6447C51.8934 98.6447 52.0034 98.6647 52.0934 98.7147V98.7247ZM52.2234 100.025C52.3034 99.9247 52.3434 99.7947 52.3434 99.6347C52.3434 99.4147 52.2834 99.2547 52.1534 99.1547C52.0734 99.0947 51.9834 99.0647 51.8834 99.0647C51.7234 99.0647 51.6134 99.1147 51.5334 99.2247C51.4634 99.3347 51.4234 99.4647 51.4234 99.6147C51.4234 99.7847 51.4634 99.9147 51.5334 100.025C51.6134 100.125 51.7234 100.175 51.8734 100.175C52.0234 100.175 52.1434 100.125 52.2234 100.025Z" fill="#E70000"/>
<path d="M54.1834 99.4153C54.2834 99.4053 54.3534 99.3853 54.3934 99.3753C54.4734 99.3453 54.5134 99.2953 54.5134 99.2353C54.5134 99.1553 54.4834 99.1053 54.4234 99.0753C54.3634 99.0453 54.2734 99.0353 54.1634 99.0353C54.0334 99.0353 53.9434 99.0653 53.8834 99.1153C53.8434 99.1553 53.8234 99.2153 53.8034 99.2853H53.2834C53.2934 99.1253 53.3434 98.9953 53.4334 98.8953C53.5734 98.7353 53.8234 98.6553 54.1734 98.6553C54.4034 98.6553 54.6034 98.6953 54.7734 98.7753C54.9534 98.8553 55.0334 99.0053 55.0334 99.2253V100.065C55.0334 100.125 55.0334 100.195 55.0334 100.275C55.0334 100.335 55.0534 100.385 55.0634 100.405C55.0834 100.425 55.1034 100.445 55.1434 100.465V100.535H54.5534C54.5534 100.535 54.5234 100.465 54.5234 100.435C54.5234 100.405 54.5134 100.365 54.5134 100.325C54.4334 100.395 54.3534 100.455 54.2534 100.505C54.1334 100.565 54.0034 100.595 53.8534 100.595C53.6634 100.595 53.5134 100.545 53.3934 100.455C53.2734 100.365 53.2134 100.225 53.2134 100.055C53.2134 99.8353 53.3134 99.6653 53.5034 99.5653C53.6134 99.5053 53.7734 99.4753 53.9834 99.4453L54.1734 99.4253L54.1834 99.4153ZM54.5134 99.6353C54.5134 99.6353 54.4434 99.6753 54.4134 99.6853C54.3834 99.6953 54.3334 99.7053 54.2634 99.7153L54.1434 99.7353C54.0234 99.7553 53.9434 99.7753 53.8934 99.8053C53.8034 99.8453 53.7634 99.9153 53.7634 100.005C53.7634 100.085 53.7934 100.145 53.8434 100.185C53.8934 100.225 53.9634 100.235 54.0334 100.235C54.1534 100.235 54.2634 100.205 54.3634 100.145C54.4634 100.085 54.5134 99.9753 54.5134 99.8153V99.6353Z" fill="#E70000"/>
<path d="M50.8235 94.1749C50.8235 94.5249 50.3135 94.8149 49.6835 94.8149C49.0535 94.8149 48.5435 94.5249 48.5435 94.1749C48.5435 93.8249 49.0535 93.5449 49.6835 93.5449C50.3135 93.5449 50.8235 93.8249 50.8235 94.1749Z" fill="#3E2411"/>
<path d="M50.1535 96.4045C50.1535 96.7045 49.9435 96.9445 49.6735 96.9445C49.4035 96.9445 49.1935 96.7045 49.1935 96.4045V94.8545C49.1935 94.5545 49.4035 94.3145 49.6735 94.3145C49.9335 94.3145 50.1535 94.5545 50.1535 94.8545V96.4045Z" fill="#3E2411"/>
<path fill-rule="evenodd" clip-rule="evenodd" d="M50.3434 48.4743C50.3434 48.4743 50.7534 46.3843 53.6634 47.0743C56.5734 47.7843 57.0334 50.2743 55.7234 52.1643C54.4134 54.0643 50.7534 53.5743 49.4634 53.3343" fill="#3E2411"/>
<path fill-rule="evenodd" clip-rule="evenodd" d="M51.1934 48.6645C51.1934 48.6645 51.7134 46.5945 48.7734 46.0045C45.8334 45.4145 44.3734 47.4745 44.7534 49.7445C45.1334 52.0145 48.6734 53.1145 49.9334 53.4445" fill="#3E2411"/>
<path opacity="0.6" fill-rule="evenodd" clip-rule="evenodd" d="M47.2134 46.9747C47.2534 47.2347 47.5634 47.4047 47.9134 47.3547C48.2634 47.3047 48.5134 47.0647 48.4834 46.8047C48.4434 46.5447 48.1434 46.3747 47.7834 46.4247C47.4434 46.4747 47.1834 46.7247 47.2134 46.9747Z" fill="white"/>
<path fill-rule="evenodd" clip-rule="evenodd" d="M43.7034 56.1244L49.3034 55.2344L55.5134 59.1144C55.5134 59.1144 54.5934 72.9944 46.7934 72.0544C45.1634 71.7244 41.9834 72.2544 41.5634 66.4444C41.1434 60.6444 42.8834 56.1744 43.7034 56.1144V56.1244Z" fill="#E57058"/>
<path fill-rule="evenodd" clip-rule="evenodd" d="M52.1634 67.9648C52.1634 67.9648 48.0734 66.2648 45.0534 67.3848C43.7934 68.1248 42.7234 70.3848 42.7234 70.3848C42.7234 70.3848 48.4434 75.2848 52.1634 67.9648Z" fill="#BC1722"/>
<path d="M49.7134 52.4644C49.1034 53.5544 49.2734 54.7444 48.0534 55.5144C46.9134 56.2244 44.7834 56.1444 43.5234 55.9344C40.9834 55.5244 38.6434 53.4744 39.0534 50.7744" stroke="#3E2411" stroke-width="1.38" stroke-miterlimit="10" stroke-linecap="round"/>
<path d="M49.7435 52.9941C48.7935 56.1941 51.5735 57.8741 54.4135 58.2941C57.3935 58.7441 59.9135 57.9341 60.3935 54.7941" stroke="#3E2411" stroke-width="1.38" stroke-miterlimit="10" stroke-linecap="round"/>
<path d="M42.9934 55.8145C42.9934 55.8145 37.9334 70.7445 46.1634 71.9645C54.8534 73.2545 55.5234 58.3345 55.5234 58.3345" stroke="#3E2411" stroke-width="1.38" stroke-miterlimit="10" stroke-linecap="round"/>
<path d="M52.9034 68.2946C52.9034 68.2946 45.6234 64.5246 42.5234 69.5746" stroke="#3E2411" stroke-width="1.08" stroke-linecap="round" stroke-linejoin="round"/>
<path d="M83.4734 89.5851C83.4734 89.5851 83.4834 89.5151 83.4834 89.4851C84.2534 83.2651 80.4634 77.0151 73.6934 76.1751C68.3234 75.5051 64.7234 78.9851 63.2134 82.4651C62.5934 78.7151 59.9634 74.4651 54.5834 73.8051C47.8234 72.9651 42.6134 78.1051 41.8434 84.3251C41.8434 84.3551 41.8434 84.3951 41.8434 84.4251C41.6434 85.7751 39.9634 99.5451 59.3834 113.355C81.5834 104.705 83.3234 90.9451 83.4534 89.5851H83.4734Z" fill="#C01722"/>
<g style="mix-blend-mode:multiply" opacity="0.2">
<path d="M52.4834 107.665C54.4234 109.535 56.7034 111.445 59.3834 113.355C81.5834 104.705 83.3234 90.9448 83.4534 89.5848C83.4534 89.5548 83.4634 89.5148 83.4634 89.4848C83.5634 88.6948 83.5834 87.9148 83.5434 87.1348C75.0234 102.135 61.2634 106.485 52.4634 107.665H52.4834Z" fill="#A31926"/>
</g>
<g style="mix-blend-mode:multiply">
<path d="M44.4634 83.4948C44.4634 83.4948 45.3834 75.1948 54.0034 76.1648C54.0034 76.1648 47.9734 76.8648 44.4634 83.4948Z" fill="#E71318"/>
</g>
<path d="M83.4734 89.5851C83.4734 89.5851 83.4834 89.5151 83.4834 89.4851C84.2534 83.2651 80.4634 77.0151 73.6934 76.1751C68.3234 75.5051 64.7234 78.9851 63.2134 82.4651C62.5934 78.7151 59.9634 74.4651 54.5834 73.8051C47.8234 72.9651 42.6134 78.1051 41.8434 84.3251C41.8434 84.3551 41.8434 84.3951 41.8434 84.4251C41.6434 85.7751 39.9634 99.5451 59.3834 113.355C81.5834 104.705 83.3234 90.9451 83.4534 89.5851H83.4734Z" stroke="#3E2411" stroke-width="1.32" stroke-linecap="round" stroke-linejoin="round"/>
<path d="M21.9534 85.2549C20.9034 86.8149 21.3534 88.3549 21.0834 90.4049C20.6734 93.4349 20.8434 96.7049 21.8034 99.5849C23.3234 104.165 27.9534 104.095 32.4934 104.155C39.9234 104.245 51.3934 102.795 52.1734 93.7749C52.4334 90.8449 47.5934 89.2749 42.4034 90.1649C38.0534 90.9149 35.2234 91.2649 33.6234 91.7849C33.2934 91.8949 33.0834 92.5749 32.8434 92.6349" fill="#FB9F00"/>
<path d="M22.8235 83.2646C21.7735 84.8246 21.1635 88.3546 20.8835 90.4046C20.4735 93.4346 20.4035 95.1846 21.3635 98.0546C22.8835 102.635 27.9435 104.095 32.4835 104.145C39.9135 104.235 51.1935 102.785 51.9735 93.7646C52.4835 87.8646 36.6835 90.6446 33.9535 91.3946" stroke="#3E2411" stroke-width="1.32" stroke-linecap="round" stroke-linejoin="round"/>
<path d="M31.2534 109.525L29.7434 103.935" stroke="#3E2411" stroke-width="1.32" stroke-linecap="round" stroke-linejoin="round"/>
<path d="M34.5534 91.2549C33.8834 91.2549 33.2134 91.5649 32.5734 91.7349" stroke="#3E2411" stroke-width="1.32" stroke-linecap="round" stroke-linejoin="round"/>
<path d="M50.2234 90.9844C49.7234 91.3344 48.6934 91.7444 48.0734 91.7344" stroke="#3E2411" stroke-width="1.05" stroke-linecap="round" stroke-linejoin="round"/>
<path d="M51.8934 93.8848C51.4434 94.4948 50.4034 94.8448 49.6934 95.1148" stroke="#3E2411" stroke-width="1.05" stroke-linecap="round" stroke-linejoin="round"/>
<path d="M83.3935 92.3945C84.2535 94.4545 85.2235 98.5245 83.8935 100.595C82.4935 102.765 79.5535 103.165 77.1835 103.255C76.0835 103.295 75.0134 102.095 74.5434 101.005C74.1634 100.105 74.0235 98.6545 74.6035 97.8345C75.6735 96.3245 77.7235 96.1645 79.3535 95.6245C80.0135 95.4045 80.6735 95.1545 81.2835 94.7745" fill="#FB9F00"/>
<path d="M83.3935 92.3945C84.2535 94.4545 85.2235 98.5245 83.8935 100.595C82.4935 102.765 79.5535 103.165 77.1835 103.255C76.0835 103.295 75.0134 102.095 74.5434 101.005C74.1634 100.105 74.0235 98.6545 74.6035 97.8345C75.6735 96.3245 77.7235 96.1645 79.3535 95.6245C80.0135 95.4045 80.6735 95.1545 81.2835 94.7745" stroke="#3E2411" stroke-width="1.32" stroke-linecap="round" stroke-linejoin="round"/>
<path d="M80.1835 95.2945C80.7435 95.3545 81.5335 94.5945 81.9435 94.2545C82.3535 93.9145 82.7735 93.4145 82.9235 92.8945" stroke="#3E2411" stroke-width="1.32" stroke-linecap="round" stroke-linejoin="round"/>
<path d="M74.4034 99.205C74.9534 99.415 75.6834 99.195 76.2434 99.165" stroke="#3E2411" stroke-width="0.79" stroke-linecap="round" stroke-linejoin="round"/>
<path d="M75.4034 101.615C75.7834 101.665 76.7134 101.285 77.1134 101.135" stroke="#3E2411" stroke-width="0.79" stroke-linecap="round" stroke-linejoin="round"/>
</g>
<path d="M83.9035 89.5841C83.9035 89.5841 83.9135 89.5141 83.9135 89.4841C84.6835 83.2641 80.8935 77.0141 74.1235 76.1741C68.7535 75.5041 65.1535 78.9841 63.6435 82.4641C63.0235 78.7141 60.3935 74.4641 55.0135 73.8041C48.2535 72.9641 43.0435 78.1041 42.2735 84.3241C42.2735 84.3541 42.2735 84.3941 42.2735 84.4241C42.0735 85.7741 40.3935 99.5441 59.8135 113.354C82.0135 104.704 83.7535 90.9441 83.8835 89.5841H83.9035Z" fill="#C01722"/>
<g style="mix-blend-mode:multiply" opacity="0.2">
<path d="M52.9135 107.664C54.8535 109.534 57.1335 111.444 59.8135 113.354C82.0135 104.704 83.7535 90.9438 83.8835 89.5838C83.8835 89.5538 83.8935 89.5138 83.8935 89.4838C83.9935 88.6938 84.0135 87.9138 83.9735 87.1338C75.4535 102.134 61.6935 106.484 52.8935 107.664H52.9135Z" fill="#A31926"/>
</g>
<g style="mix-blend-mode:multiply">
<path d="M44.8835 83.4938C44.8835 83.4938 45.8035 75.1938 54.4235 76.1638C54.4235 76.1638 48.3935 76.8638 44.8835 83.4938Z" fill="#E71318"/>
</g>
<path d="M83.9035 89.5841C83.9035 89.5841 83.9135 89.5141 83.9135 89.4841C84.6835 83.2641 80.8935 77.0141 74.1235 76.1741C68.7535 75.5041 65.1535 78.9841 63.6435 82.4641C63.0235 78.7141 60.3935 74.4641 55.0135 73.8041C48.2535 72.9641 43.0435 78.1041 42.2735 84.3241C42.2735 84.3541 42.2735 84.3941 42.2735 84.4241C42.0735 85.7741 40.3935 99.5441 59.8135 113.354C82.0135 104.704 83.7535 90.9441 83.8835 89.5841H83.9035Z" stroke="#3E2411" stroke-width="1.32" stroke-linecap="round" stroke-linejoin="round"/>
<path d="M22.3734 85.0547C21.3234 86.6147 21.7734 88.1547 21.5034 90.2047C21.0934 93.2347 21.2634 96.5047 22.2234 99.3847C23.7434 103.965 28.3734 103.895 32.9134 103.955C40.3434 104.045 51.8134 102.595 52.5934 93.5747C52.8534 90.6447 48.0134 89.0747 42.8234 89.9647C38.4734 90.7147 35.6434 91.0647 34.0434 91.5847C33.7134 91.6947 33.5034 92.3747 33.2634 92.4347" fill="#FB9F00"/>
<path d="M34.9735 91.2539C34.3035 91.2539 33.6335 91.5639 32.9935 91.7339" stroke="#3E2411" stroke-width="1.32" stroke-linecap="round" stroke-linejoin="round"/>
<path d="M50.6535 90.9844C50.1535 91.3344 49.1235 91.7444 48.5035 91.7344" stroke="#3E2411" stroke-width="1.05" stroke-linecap="round" stroke-linejoin="round"/>
<path d="M52.3135 93.8838C51.8635 94.4938 50.8235 94.8438 50.1135 95.1138" stroke="#3E2411" stroke-width="1.05" stroke-linecap="round" stroke-linejoin="round"/>
<path d="M83.8135 92.3945C84.6735 94.4545 85.6435 98.5245 84.3135 100.595C82.9135 102.765 79.9735 103.165 77.6035 103.255C76.5035 103.295 75.4335 102.095 74.9635 101.005C74.5835 100.105 74.4435 98.6545 75.0235 97.8345C76.0935 96.3245 78.1435 96.1645 79.7735 95.6245C80.4335 95.4045 81.0935 95.1545 81.7035 94.7745" fill="#FB9F00"/>
<path d="M83.8135 92.3945C84.6735 94.4545 85.6435 98.5245 84.3135 100.595C82.9135 102.765 79.9735 103.165 77.6035 103.255C76.5035 103.295 75.4335 102.095 74.9635 101.005C74.5835 100.105 74.4435 98.6545 75.0235 97.8345C76.0935 96.3245 78.1435 96.1645 79.7735 95.6245C80.4335 95.4045 81.0935 95.1545 81.7035 94.7745" stroke="#3E2411" stroke-width="1.32" stroke-linecap="round" stroke-linejoin="round"/>
<path d="M74.8235 99.2041C75.3735 99.4141 76.1035 99.1941 76.6635 99.1641" stroke="#3E2411" stroke-width="0.79" stroke-linecap="round" stroke-linejoin="round"/>
<path d="M75.8335 101.614C76.2135 101.664 77.1435 101.284 77.5435 101.134" stroke="#3E2411" stroke-width="0.79" stroke-linecap="round" stroke-linejoin="round"/>
<path d="M23.2535 83.2646C22.2035 84.8246 21.5935 88.3546 21.3135 90.4046C20.9035 93.4346 20.8335 95.1846 21.7935 98.0546C23.3135 102.635 28.3735 104.095 32.9135 104.145C40.3435 104.235 51.6235 102.785 52.4035 93.7646C52.9135 87.8646 37.1135 90.6446 34.3835 91.3946" stroke="#3E2411" stroke-width="1.32" stroke-linecap="round" stroke-linejoin="round"/>
</g>
<defs>
<clipPath id="clip0_31_1133">
<rect width="101" height="114" fill="white"/>
</clipPath>
</defs>
</svg>
