<svg width="20" height="19" viewBox="0 0 20 19" fill="none" xmlns="http://www.w3.org/2000/svg">
<path d="M16.6856 8.61112C16.6884 9.63769 16.4417 10.6504 15.9656 11.5667C15.4012 12.6647 14.5334 13.5882 13.4596 14.2339C12.3857 14.8795 11.1482 15.2217 9.88563 15.2222C8.82974 15.2249 7.78813 14.9851 6.84564 14.5222L2.28564 16L3.80564 11.5667C3.32959 10.6504 3.08289 9.63769 3.08564 8.61112C3.08613 7.3836 3.43813 6.18046 4.10222 5.13644C4.7663 4.09243 5.71624 3.24879 6.84564 2.70002C7.78813 2.23719 8.82974 1.99735 9.88563 2.00002H10.2856C11.9531 2.08946 13.5281 2.77372 14.7089 3.9218C15.8898 5.06987 16.5936 6.60108 16.6856 8.22223V8.61112Z" stroke="#32AB31" stroke-width="2" stroke-linecap="round" stroke-linejoin="round"/>
</svg>
