<svg width="34" height="31" viewBox="0 0 34 31" fill="none" xmlns="http://www.w3.org/2000/svg">
<path d="M23.5918 22.8347C24.5473 23.5826 25.9461 23.3961 26.711 22.4189L32.2583 15.3317C33.0232 14.3544 32.8682 12.9518 31.9126 12.2039L18.0532 1.35599C17.0977 0.608075 15.6989 0.794541 14.934 1.7718L13.8939 3.10065C13.7032 3.34427 13.7491 3.69273 13.9316 3.93372C14.5297 4.7144 14.5407 5.84362 13.8928 6.67138C13.2449 7.49914 12.1461 7.75968 11.2446 7.36658C10.9641 7.24528 10.6197 7.28375 10.4269 7.53014L9.38678 8.85899C8.62187 9.83625 8.77686 11.2389 9.7324 11.9868L23.5918 22.8347ZM15.4503 13.6049C15.3583 13.7224 15.2245 13.7994 15.0783 13.8189C14.932 13.8384 14.7853 13.7988 14.6705 13.7089C14.5556 13.619 14.482 13.4861 14.4658 13.3395C14.4495 13.1928 14.4921 13.0444 14.5841 12.927C14.676 12.8095 14.8098 12.7325 14.9561 12.713C15.1023 12.6935 15.249 12.7331 15.3639 12.823C15.4787 12.9129 15.5524 13.0458 15.5686 13.1924C15.5848 13.3391 15.5422 13.4875 15.4503 13.6049ZM16.8371 11.8332C16.7451 11.9506 16.6113 12.0276 16.4651 12.0471C16.3188 12.0666 16.1721 12.027 16.0573 11.9371C15.9424 11.8472 15.8688 11.7143 15.8526 11.5677C15.8364 11.421 15.8789 11.2726 15.9709 11.1552C16.0628 11.0377 16.1966 10.9607 16.3429 10.9412C16.4891 10.9217 16.6358 10.9613 16.7507 11.0512C16.8655 11.1411 16.9392 11.274 16.9554 11.4206C16.9716 11.5673 16.929 11.7157 16.8371 11.8332ZM17.4441 10.1653C17.3292 10.0754 17.2556 9.9425 17.2394 9.79586C17.2232 9.64922 17.2657 9.50084 17.3577 9.38336C17.4496 9.26588 17.5834 9.18893 17.7297 9.16944C17.8759 9.14994 18.0226 9.1895 18.1375 9.27941C18.2523 9.36931 18.326 9.50221 18.3422 9.64885C18.3584 9.79549 18.3158 9.94388 18.2239 10.0614C18.1319 10.1788 17.9981 10.2558 17.8519 10.2753C17.7056 10.2948 17.5589 10.2552 17.4441 10.1653ZM19.6107 8.28956C19.5187 8.40703 19.3849 8.48398 19.2387 8.50348C19.0924 8.52297 18.9457 8.48342 18.8309 8.39351C18.716 8.3036 18.6424 8.17071 18.6262 8.02406C18.61 7.87742 18.6525 7.72904 18.7445 7.61156C18.8364 7.49408 18.9702 7.41713 19.1165 7.39764C19.2627 7.37814 19.4094 7.4177 19.5243 7.50761C19.6391 7.59752 19.7128 7.73041 19.729 7.87705C19.7452 8.0237 19.7026 8.17208 19.6107 8.28956ZM20.2177 6.62171C20.1028 6.5318 20.0292 6.39891 20.013 6.25227C19.9968 6.10562 20.0393 5.95724 20.1313 5.83976C20.2232 5.72229 20.357 5.64534 20.5033 5.62584C20.6495 5.60635 20.7962 5.6459 20.9111 5.73581C21.026 5.82572 21.0996 5.95861 21.1158 6.10526C21.132 6.2519 21.0894 6.40028 20.9975 6.51776C20.9055 6.63524 20.7717 6.71219 20.6255 6.73168C20.4792 6.75118 20.3326 6.71162 20.2177 6.62171Z" fill="url(#paint0_linear_233_29066)"/>
<path d="M23.5918 22.8347C24.5473 23.5826 25.9461 23.3961 26.711 22.4189L32.2583 15.3317C33.0232 14.3544 32.8682 12.9518 31.9126 12.2039L18.0532 1.35599C17.0977 0.608075 15.6989 0.794541 14.934 1.7718L13.8939 3.10065C13.7032 3.34427 13.7491 3.69273 13.9316 3.93372C14.5297 4.7144 14.5407 5.84362 13.8928 6.67138C13.2449 7.49914 12.1461 7.75968 11.2446 7.36658C10.9641 7.24528 10.6197 7.28375 10.4269 7.53014L9.38678 8.85899C8.62187 9.83625 8.77686 11.2389 9.7324 11.9868L23.5918 22.8347ZM15.4503 13.6049C15.3583 13.7224 15.2245 13.7994 15.0783 13.8189C14.932 13.8384 14.7853 13.7988 14.6705 13.7089C14.5556 13.619 14.482 13.4861 14.4658 13.3395C14.4495 13.1928 14.4921 13.0444 14.5841 12.927C14.676 12.8095 14.8098 12.7325 14.9561 12.713C15.1023 12.6935 15.249 12.7331 15.3639 12.823C15.4787 12.9129 15.5524 13.0458 15.5686 13.1924C15.5848 13.3391 15.5422 13.4875 15.4503 13.6049ZM16.8371 11.8332C16.7451 11.9506 16.6113 12.0276 16.4651 12.0471C16.3188 12.0666 16.1721 12.027 16.0573 11.9371C15.9424 11.8472 15.8688 11.7143 15.8526 11.5677C15.8364 11.421 15.8789 11.2726 15.9709 11.1552C16.0628 11.0377 16.1966 10.9607 16.3429 10.9412C16.4891 10.9217 16.6358 10.9613 16.7507 11.0512C16.8655 11.1411 16.9392 11.274 16.9554 11.4206C16.9716 11.5673 16.929 11.7157 16.8371 11.8332ZM17.4441 10.1653C17.3292 10.0754 17.2556 9.9425 17.2394 9.79586C17.2232 9.64922 17.2657 9.50084 17.3577 9.38336C17.4496 9.26588 17.5834 9.18893 17.7297 9.16944C17.8759 9.14994 18.0226 9.1895 18.1375 9.27941C18.2523 9.36931 18.326 9.50221 18.3422 9.64885C18.3584 9.79549 18.3158 9.94388 18.2239 10.0614C18.1319 10.1788 17.9981 10.2558 17.8519 10.2753C17.7056 10.2948 17.5589 10.2552 17.4441 10.1653ZM19.6107 8.28956C19.5187 8.40703 19.3849 8.48398 19.2387 8.50348C19.0924 8.52297 18.9457 8.48342 18.8309 8.39351C18.716 8.3036 18.6424 8.17071 18.6262 8.02406C18.61 7.87742 18.6525 7.72904 18.7445 7.61156C18.8364 7.49408 18.9702 7.41713 19.1165 7.39764C19.2627 7.37814 19.4094 7.4177 19.5243 7.50761C19.6391 7.59752 19.7128 7.73041 19.729 7.87705C19.7452 8.0237 19.7026 8.17208 19.6107 8.28956ZM20.2177 6.62171C20.1028 6.5318 20.0292 6.39891 20.013 6.25227C19.9968 6.10562 20.0393 5.95724 20.1313 5.83976C20.2232 5.72229 20.357 5.64534 20.5033 5.62584C20.6495 5.60635 20.7962 5.6459 20.9111 5.73581C21.026 5.82572 21.0996 5.95861 21.1158 6.10526C21.132 6.2519 21.0894 6.40028 20.9975 6.51776C20.9055 6.63524 20.7717 6.71219 20.6255 6.73168C20.4792 6.75118 20.3326 6.71162 20.2177 6.62171Z" stroke="white"/>
<path d="M4.68624 13.398C3.43676 13.1786 2.23993 14.0308 2.01735 15.2984L0.403153 24.4911C0.18057 25.7587 1.01547 26.9677 2.26494 27.1871L20.3877 30.3693C21.6371 30.5887 22.834 29.7365 23.0566 28.4689L23.3592 26.7453C23.4147 26.4293 23.2005 26.1326 22.9135 26.0008C21.9771 25.5772 21.4098 24.5485 21.5983 23.4748C21.7869 22.4011 22.6707 21.6272 23.6953 21.548C24.0136 21.5225 24.312 21.3195 24.3681 20.9999L24.6708 19.2763C24.8933 18.0087 24.0584 16.7997 22.809 16.5803L4.68624 13.398ZM16.7421 17.884C16.7688 17.7316 16.8541 17.596 16.9793 17.5069C17.1044 17.4178 17.2591 17.3825 17.4093 17.4089C17.5595 17.4353 17.6929 17.5211 17.7802 17.6475C17.8675 17.7739 17.9015 17.9305 17.8747 18.0829C17.848 18.2353 17.7626 18.3709 17.6375 18.46C17.5124 18.5491 17.3577 18.5844 17.2075 18.558C17.0573 18.5316 16.9239 18.4458 16.8366 18.3194C16.7493 18.193 16.7153 18.0364 16.7421 17.884ZM16.3385 20.1822C16.3653 20.0298 16.4506 19.8941 16.5757 19.805C16.7009 19.7159 16.8555 19.6807 17.0057 19.7071C17.1559 19.7335 17.2894 19.8193 17.3766 19.9457C17.4639 20.0721 17.4979 20.2287 17.4712 20.3811C17.4444 20.5335 17.3591 20.6691 17.234 20.7582C17.1088 20.8473 16.9542 20.8825 16.804 20.8562C16.6538 20.8298 16.5203 20.744 16.4331 20.6176C16.3458 20.4912 16.3118 20.3346 16.3385 20.1822ZM16.6022 22.0053C16.7524 22.0316 16.8858 22.1175 16.9731 22.2439C17.0604 22.3703 17.0944 22.5269 17.0676 22.6792C17.0409 22.8316 16.9556 22.9673 16.8304 23.0564C16.7053 23.1455 16.5506 23.1807 16.4004 23.1543C16.2502 23.128 16.1168 23.0421 16.0295 22.9157C15.9422 22.7893 15.9082 22.6327 15.935 22.4804C15.9617 22.328 16.047 22.1923 16.1722 22.1032C16.2973 22.0141 16.452 21.9789 16.6022 22.0053ZM15.5314 24.7785C15.5582 24.6261 15.6435 24.4905 15.7686 24.4014C15.8938 24.3123 16.0484 24.2771 16.1986 24.3034C16.3488 24.3298 16.4823 24.4156 16.5695 24.542C16.6568 24.6684 16.6908 24.825 16.6641 24.9774C16.6373 25.1298 16.552 25.2655 16.4269 25.3546C16.3017 25.4437 16.1471 25.4789 15.9969 25.4525C15.8467 25.4261 15.7132 25.3403 15.626 25.2139C15.5387 25.0875 15.5047 24.9309 15.5314 24.7785ZM15.7951 26.6016C15.9453 26.628 16.0787 26.7138 16.166 26.8402C16.2533 26.9666 16.2873 27.1232 16.2605 27.2756C16.2338 27.428 16.1485 27.5636 16.0233 27.6527C15.8982 27.7418 15.7435 27.7771 15.5933 27.7507C15.4431 27.7243 15.3097 27.6385 15.2224 27.5121C15.1351 27.3857 15.1011 27.2291 15.1279 27.0767C15.1546 26.9243 15.24 26.7887 15.3651 26.6996C15.4902 26.6105 15.6449 26.5752 15.7951 26.6016Z" fill="url(#paint1_linear_233_29066)"/>
<path d="M4.68624 13.398C3.43676 13.1786 2.23993 14.0308 2.01735 15.2984L0.403153 24.4911C0.18057 25.7587 1.01547 26.9677 2.26494 27.1871L20.3877 30.3693C21.6371 30.5887 22.834 29.7365 23.0566 28.4689L23.3592 26.7453C23.4147 26.4293 23.2005 26.1326 22.9135 26.0008C21.9771 25.5772 21.4098 24.5485 21.5983 23.4748C21.7869 22.4011 22.6707 21.6272 23.6953 21.548C24.0136 21.5225 24.312 21.3195 24.3681 20.9999L24.6708 19.2763C24.8933 18.0087 24.0584 16.7997 22.809 16.5803L4.68624 13.398ZM16.7421 17.884C16.7688 17.7316 16.8541 17.596 16.9793 17.5069C17.1044 17.4178 17.2591 17.3825 17.4093 17.4089C17.5595 17.4353 17.6929 17.5211 17.7802 17.6475C17.8675 17.7739 17.9015 17.9305 17.8747 18.0829C17.848 18.2353 17.7626 18.3709 17.6375 18.46C17.5124 18.5491 17.3577 18.5844 17.2075 18.558C17.0573 18.5316 16.9239 18.4458 16.8366 18.3194C16.7493 18.193 16.7153 18.0364 16.7421 17.884ZM16.3385 20.1822C16.3653 20.0298 16.4506 19.8941 16.5757 19.805C16.7009 19.7159 16.8555 19.6807 17.0057 19.7071C17.1559 19.7335 17.2894 19.8193 17.3766 19.9457C17.4639 20.0721 17.4979 20.2287 17.4712 20.3811C17.4444 20.5335 17.3591 20.6691 17.234 20.7582C17.1088 20.8473 16.9542 20.8825 16.804 20.8562C16.6538 20.8298 16.5203 20.744 16.4331 20.6176C16.3458 20.4912 16.3118 20.3346 16.3385 20.1822ZM16.6022 22.0053C16.7524 22.0316 16.8858 22.1175 16.9731 22.2439C17.0604 22.3703 17.0944 22.5269 17.0676 22.6792C17.0409 22.8316 16.9556 22.9673 16.8304 23.0564C16.7053 23.1455 16.5506 23.1807 16.4004 23.1543C16.2502 23.128 16.1168 23.0421 16.0295 22.9157C15.9422 22.7893 15.9082 22.6327 15.935 22.4804C15.9617 22.328 16.047 22.1923 16.1722 22.1032C16.2973 22.0141 16.452 21.9789 16.6022 22.0053ZM15.5314 24.7785C15.5582 24.6261 15.6435 24.4905 15.7686 24.4014C15.8938 24.3123 16.0484 24.2771 16.1986 24.3034C16.3488 24.3298 16.4823 24.4156 16.5695 24.542C16.6568 24.6684 16.6908 24.825 16.6641 24.9774C16.6373 25.1298 16.552 25.2655 16.4269 25.3546C16.3017 25.4437 16.1471 25.4789 15.9969 25.4525C15.8467 25.4261 15.7132 25.3403 15.626 25.2139C15.5387 25.0875 15.5047 24.9309 15.5314 24.7785ZM15.7951 26.6016C15.9453 26.628 16.0787 26.7138 16.166 26.8402C16.2533 26.9666 16.2873 27.1232 16.2605 27.2756C16.2338 27.428 16.1485 27.5636 16.0233 27.6527C15.8982 27.7418 15.7435 27.7771 15.5933 27.7507C15.4431 27.7243 15.3097 27.6385 15.2224 27.5121C15.1351 27.3857 15.1011 27.2291 15.1279 27.0767C15.1546 26.9243 15.24 26.7887 15.3651 26.6996C15.4902 26.6105 15.6449 26.5752 15.7951 26.6016Z" stroke="white"/>
<defs>
<linearGradient id="paint0_linear_233_29066" x1="0.950098" y1="13.2021" x2="26.9622" y2="18.8916" gradientUnits="userSpaceOnUse">
<stop stop-color="#FFDD8C"/>
<stop offset="1" stop-color="#FFB31D"/>
</linearGradient>
<linearGradient id="paint1_linear_233_29066" x1="13.7924" y1="14.7338" x2="22.7117" y2="29.817" gradientUnits="userSpaceOnUse">
<stop stop-color="#00B14F"/>
<stop offset="1" stop-color="#1CAF0E"/>
</linearGradient>
</defs>
</svg>
