<svg width="16" height="15" viewBox="0 0 16 15" fill="none" xmlns="http://www.w3.org/2000/svg">
<path d="M10.418 4.87891L14.3281 5.45312C14.6562 5.50781 14.9297 5.72656 15.0391 6.05469C15.1484 6.35547 15.0664 6.71094 14.8203 6.92969L11.9766 9.74609L12.6602 13.7383C12.7148 14.0664 12.5781 14.3945 12.3047 14.5859C12.0312 14.8047 11.6758 14.8047 11.375 14.668L7.875 12.7812L4.34766 14.668C4.07422 14.8047 3.69141 14.8047 3.44531 14.5859C3.17188 14.3945 3.03516 14.0664 3.08984 13.7383L3.74609 9.74609L0.902344 6.92969C0.65625 6.71094 0.574219 6.35547 0.683594 6.05469C0.792969 5.72656 1.06641 5.50781 1.39453 5.45312L5.33203 4.87891L7.08203 1.24219C7.21875 0.941406 7.51953 0.75 7.875 0.75C8.20312 0.75 8.50391 0.941406 8.64062 1.24219L10.418 4.87891Z" fill="#F0592A"/>
</svg>
