<svg xmlns="http://www.w3.org/2000/svg" width="47" height="46" viewBox="0 0 47 46" fill="none"><path d="M29.1706 41.4334C31.1476 42.6552 33.5035 43.1876 35.8421 42.9412C38.1807 42.6947 40.3595 41.6845 42.0119 40.0803L43.4566 38.7272C44.0899 38.1066 44.4446 37.2733 44.4446 36.4054C44.4446 35.5375 44.0899 34.7042 43.4566 34.0836L37.3249 28.2714C36.6825 27.6667 35.8178 27.3278 34.9171 27.3278C34.0164 27.3278 33.1518 27.6667 32.5094 28.2714V28.2714C31.8616 28.8781 30.9916 29.2178 30.0856 29.2178C29.1796 29.2178 28.3096 28.8781 27.6618 28.2714L18.0308 19.0457C17.7095 18.7425 17.4544 18.381 17.2802 17.9824C17.1061 17.5838 17.0164 17.156 17.0164 16.724C17.0164 16.2919 17.1061 15.8641 17.2802 15.4655C17.4544 15.0669 17.7095 14.7054 18.0308 14.4022V14.4022C18.6621 13.7868 19.0159 12.9585 19.0159 12.0957C19.0159 11.233 18.6621 10.4047 18.0308 9.78932L11.9312 3.94639C11.2833 3.3397 10.4133 3 9.50737 3C8.60138 3 7.73139 3.3397 7.08357 3.94639L5.67102 5.33024C3.99634 6.91319 2.94171 9.00022 2.68446 11.2404C2.42722 13.4806 2.98304 15.7373 4.25848 17.6311C10.904 27.0128 19.3597 35.0918 29.1706 41.4334V41.4334Z" stroke="black" stroke-width="5" stroke-linecap="round" stroke-linejoin="round"></path></svg>