<svg width="20" height="20" viewBox="0 0 20 20" fill="none" xmlns="http://www.w3.org/2000/svg">
<path fill-rule="evenodd" clip-rule="evenodd" d="M10.0001 0.833252C10.4603 0.833252 10.8334 1.20635 10.8334 1.66659V6.66658C10.8334 7.12682 10.4603 7.49992 10.0001 7.49992C9.53985 7.49992 9.16675 7.12682 9.16675 6.66658V1.66659C9.16675 1.20635 9.53985 0.833252 10.0001 0.833252ZM5.81289 3.34184C5.71574 3.3339 5.58052 3.33325 5.33342 3.33325H3.83342C3.58631 3.33325 3.4511 3.3339 3.35395 3.34184C3.35008 3.34215 3.34642 3.34247 3.34296 3.34279C3.34264 3.34625 3.34232 3.34991 3.342 3.35378C3.33407 3.45093 3.33342 3.58615 3.33342 3.83325V5.33325C3.33342 5.58036 3.33407 5.71557 3.342 5.81272C3.34232 5.81659 3.34264 5.82025 3.34296 5.82371C3.34642 5.82403 3.35008 5.82435 3.35395 5.82467C3.4511 5.8326 3.58631 5.83325 3.83342 5.83325H5.33342C5.58052 5.83325 5.71574 5.8326 5.81289 5.82467C5.81676 5.82435 5.82042 5.82403 5.82388 5.82371C5.8242 5.82025 5.82452 5.81659 5.82483 5.81272C5.83277 5.71557 5.83342 5.58036 5.83342 5.33325V3.83325C5.83342 3.58615 5.83277 3.45093 5.82483 3.35378C5.82452 3.34991 5.8242 3.34625 5.82388 3.34279C5.82042 3.34247 5.81676 3.34215 5.81289 3.34184ZM5.94861 1.68071C6.1391 1.69627 6.36388 1.73299 6.59007 1.84824C6.90367 2.00803 7.15864 2.263 7.31843 2.5766C7.43368 2.80279 7.4704 3.02757 7.48596 3.21806C7.50014 3.39153 7.50011 3.59635 7.50009 3.80667C7.50009 3.81552 7.50009 3.82438 7.50009 3.83325V5.33325C7.50009 5.34212 7.50009 5.35098 7.50009 5.35983C7.50011 5.57015 7.50014 5.77498 7.48596 5.94844C7.4704 6.13894 7.43368 6.36372 7.31843 6.5899C7.15864 6.90351 6.90367 7.15847 6.59007 7.31826C6.36388 7.43351 6.1391 7.47023 5.94861 7.4858C5.77515 7.49997 5.57032 7.49995 5.36 7.49992C5.35115 7.49992 5.34229 7.49992 5.33342 7.49992H3.83342C3.82455 7.49992 3.81569 7.49992 3.80684 7.49992C3.59652 7.49995 3.39169 7.49997 3.21823 7.4858C3.02773 7.47023 2.80295 7.43351 2.57677 7.31826C2.26316 7.15847 2.0082 6.90351 1.84841 6.5899C1.73316 6.36372 1.69644 6.13894 1.68087 5.94844C1.6667 5.77498 1.66673 5.57015 1.66675 5.35983C1.66675 5.35098 1.66675 5.34212 1.66675 5.33325V3.83325C1.66675 3.82438 1.66675 3.81552 1.66675 3.80667C1.66673 3.59635 1.6667 3.39153 1.68087 3.21806C1.69644 3.02757 1.73316 2.80279 1.84841 2.5766C2.0082 2.263 2.26316 2.00803 2.57677 1.84824C2.80295 1.73299 3.02773 1.69627 3.21823 1.68071C3.39169 1.66653 3.59652 1.66656 3.80684 1.66658C3.81569 1.66659 3.82455 1.66659 3.83342 1.66659H5.33342C5.34229 1.66659 5.35115 1.66659 5.36 1.66658C5.57032 1.66656 5.77515 1.66653 5.94861 1.68071ZM14.6402 1.66658H16.1933C16.4037 1.66656 16.6085 1.66653 16.7819 1.68071C16.9724 1.69627 17.1972 1.73299 17.4234 1.84824C17.737 2.00803 17.992 2.263 18.1518 2.5766C18.267 2.80279 18.3037 3.02757 18.3193 3.21806C18.3335 3.39152 18.3334 3.59634 18.3334 3.80666V5.35985C18.3334 5.57016 18.3335 5.77498 18.3193 5.94844C18.3037 6.13894 18.267 6.36372 18.1518 6.5899C17.992 6.90351 17.737 7.15847 17.4234 7.31826C17.1972 7.43351 16.9724 7.47023 16.7819 7.4858C16.6085 7.49997 16.4037 7.49995 16.1933 7.49992H14.6402C14.4299 7.49995 14.225 7.49997 14.0516 7.4858C13.8611 7.47023 13.6363 7.43351 13.4101 7.31826C13.0965 7.15847 12.8415 6.90351 12.6817 6.5899C12.5665 6.36372 12.5298 6.13894 12.5142 5.94844C12.5 5.77497 12.5001 5.57014 12.5001 5.35982V3.80668C12.5001 3.59636 12.5 3.39153 12.5142 3.21806C12.5298 3.02757 12.5665 2.80279 12.6817 2.5766C12.8415 2.263 13.0965 2.00803 13.4101 1.84824C13.6363 1.73299 13.8611 1.69627 14.0516 1.68071C14.225 1.66653 14.4299 1.66656 14.6402 1.66658ZM14.1763 3.34279C14.176 3.34625 14.1757 3.34991 14.1753 3.35378C14.1674 3.45093 14.1668 3.58615 14.1668 3.83325V5.33325C14.1668 5.58036 14.1674 5.71557 14.1753 5.81272C14.1757 5.81659 14.176 5.82025 14.1763 5.82371C14.1798 5.82403 14.1834 5.82435 14.1873 5.82467C14.2844 5.8326 14.4196 5.83325 14.6668 5.83325H16.1668C16.4139 5.83325 16.5491 5.8326 16.6462 5.82467C16.6501 5.82435 16.6538 5.82402 16.6572 5.8237C16.6575 5.82025 16.6579 5.81659 16.6582 5.81272C16.6661 5.71557 16.6668 5.58036 16.6668 5.33325V3.83325C16.6668 3.58615 16.6661 3.45093 16.6582 3.35378C16.6579 3.34991 16.6575 3.34625 16.6572 3.34279C16.6537 3.34247 16.6501 3.34215 16.6462 3.34184C16.5491 3.3339 16.4139 3.33325 16.1668 3.33325H14.6668C14.4196 3.33325 14.2844 3.3339 14.1873 3.34184C14.1834 3.34215 14.1798 3.34247 14.1763 3.34279ZM1.66675 9.99992C1.66675 9.53968 2.03985 9.16658 2.50009 9.16658H2.50842C2.96866 9.16658 3.34175 9.53968 3.34175 9.99992C3.34175 10.4602 2.96866 10.8333 2.50842 10.8333H2.50009C2.03985 10.8333 1.66675 10.4602 1.66675 9.99992ZM5.00009 9.99992C5.00009 9.53968 5.37318 9.16658 5.83342 9.16658H10.0001C10.4603 9.16658 10.8334 9.53968 10.8334 9.99992V14.1666C10.8334 14.6268 10.4603 14.9999 10.0001 14.9999C9.53985 14.9999 9.16675 14.6268 9.16675 14.1666V10.8333H5.83342C5.37318 10.8333 5.00009 10.4602 5.00009 9.99992ZM12.0834 9.99992C12.0834 9.53968 12.4565 9.16658 12.9168 9.16658H14.5834C15.0437 9.16658 15.4168 9.53968 15.4168 9.99992C15.4168 10.4602 15.0437 10.8333 14.5834 10.8333H12.9168C12.4565 10.8333 12.0834 10.4602 12.0834 9.99992ZM16.6668 9.99992C16.6668 9.53968 17.0398 9.16658 17.5001 9.16658H17.5084C17.9687 9.16658 18.3418 9.53968 18.3418 9.99992C18.3418 10.4602 17.9687 10.8333 17.5084 10.8333H17.5001C17.0398 10.8333 16.6668 10.4602 16.6668 9.99992ZM14.6402 12.4999H16.1933C16.4036 12.4999 16.6085 12.4999 16.7819 12.514C16.9724 12.5296 17.1972 12.5663 17.4234 12.6816C17.737 12.8414 17.992 13.0963 18.1518 13.4099C18.267 13.6361 18.3037 13.8609 18.3193 14.0514C18.3335 14.2249 18.3334 14.4297 18.3334 14.64V16.1932C18.3334 16.4035 18.3335 16.6083 18.3193 16.7818C18.3037 16.9723 18.267 17.197 18.1518 17.4232C17.992 17.7368 17.737 17.9918 17.4234 18.1516C17.1972 18.2668 16.9724 18.3036 16.7819 18.3191C16.6085 18.3333 16.4037 18.3333 16.1933 18.3333H14.6402C14.4298 18.3333 14.225 18.3333 14.0516 18.3191C13.8611 18.3036 13.6363 18.2668 13.4101 18.1516C13.0965 17.9918 12.8415 17.7368 12.6817 17.4232C12.5665 17.197 12.5298 16.9723 12.5142 16.7818C12.5 16.6083 12.5001 16.4035 12.5001 16.1932V14.64C12.5001 14.4297 12.5 14.2249 12.5142 14.0514C12.5298 13.8609 12.5665 13.6361 12.6817 13.4099C12.8415 13.0963 13.0965 12.8414 13.4101 12.6816C13.6363 12.5663 13.8611 12.5296 14.0516 12.514C14.225 12.4999 14.4299 12.4999 14.6402 12.4999ZM14.1763 14.1761C14.176 14.1796 14.1757 14.1832 14.1753 14.1871C14.1674 14.2843 14.1668 14.4195 14.1668 14.6666V16.1666C14.1668 16.4137 14.1674 16.5489 14.1753 16.6461C14.1757 16.6499 14.176 16.6536 14.1763 16.657C14.1797 16.6574 14.1834 16.6577 14.1873 16.658C14.2844 16.6659 14.4196 16.6666 14.6668 16.6666H16.1668C16.4139 16.6666 16.5491 16.6659 16.6462 16.658C16.6501 16.6577 16.6538 16.6574 16.6572 16.657C16.6575 16.6536 16.6579 16.6499 16.6582 16.6461C16.6661 16.5489 16.6668 16.4137 16.6668 16.1666V14.6666C16.6668 14.4195 16.6661 14.2843 16.6582 14.1871C16.6579 14.1832 16.6575 14.1796 16.6572 14.1761C16.6537 14.1758 16.6501 14.1755 16.6462 14.1752C16.5491 14.1672 16.4139 14.1666 16.1668 14.1666H14.6668C14.4196 14.1666 14.2844 14.1672 14.1873 14.1752C14.1834 14.1755 14.1798 14.1758 14.1763 14.1761ZM1.66675 14.1666C1.66675 13.7063 2.03985 13.3333 2.50009 13.3333H3.75009C4.21032 13.3333 4.58342 13.7063 4.58342 14.1666C4.58342 14.6268 4.21032 14.9999 3.75009 14.9999H2.50009C2.03985 14.9999 1.66675 14.6268 1.66675 14.1666ZM5.83342 14.1666C5.83342 13.7063 6.20651 13.3333 6.66675 13.3333H6.67509C7.13532 13.3333 7.50842 13.7063 7.50842 14.1666C7.50842 14.6268 7.13532 14.9999 6.67509 14.9999H6.66675C6.20651 14.9999 5.83342 14.6268 5.83342 14.1666ZM1.66675 17.4999C1.66675 17.0397 2.03985 16.6666 2.50009 16.6666H6.66675C7.12699 16.6666 7.50009 17.0397 7.50009 17.4999C7.50009 17.9602 7.12699 18.3333 6.66675 18.3333H2.50009C2.03985 18.3333 1.66675 17.9602 1.66675 17.4999ZM9.16675 17.4999C9.16675 17.0397 9.53985 16.6666 10.0001 16.6666H10.0084C10.4687 16.6666 10.8418 17.0397 10.8418 17.4999C10.8418 17.9602 10.4687 18.3333 10.0084 18.3333H10.0001C9.53985 18.3333 9.16675 17.9602 9.16675 17.4999Z" fill="white"/>
</svg>
