<svg width="42" height="27" viewBox="0 0 42 27" fill="none" xmlns="http://www.w3.org/2000/svg">
<path d="M2.74247 3.50108C1.22982 3.74247 0.197368 5.17553 0.440123 6.69677L0.880247 9.45482C0.940763 9.83405 1.30531 10.0808 1.68092 10.149C2.53122 10.3006 3.2328 10.9797 3.37722 11.8846C3.52164 12.7896 3.06624 13.6533 2.30534 14.062C1.96962 14.2437 1.69998 14.5917 1.76049 14.9709L2.20062 17.729C2.44337 19.2502 3.87056 20.2908 5.38321 20.0494L24.5805 16.9859C26.0931 16.7445 27.1256 15.3115 26.8828 13.7902L26.4427 11.0322C26.3822 10.653 26.0176 10.4062 25.642 10.338C24.7917 10.1864 24.0901 9.50735 23.9457 8.60236C23.8013 7.69738 24.2567 6.83367 25.0176 6.425C25.3533 6.24327 25.623 5.89532 25.5624 5.51609L25.1223 2.75804C24.8796 1.2368 23.4524 0.196243 21.9397 0.437627L2.74247 3.50108ZM6.25515 7.89003L7.35546 14.7852C7.41597 15.1644 7.77402 15.4254 8.1511 15.3653L20.4922 13.3959C20.8693 13.3357 21.1283 12.9762 21.0678 12.597L19.9675 5.70185C19.907 5.32262 19.5489 5.06157 19.1718 5.12175L6.83073 7.09111C6.45365 7.15129 6.19463 7.5108 6.25515 7.89003ZM4.77388 7.41934C4.65216 6.65657 5.16659 5.94253 5.92506 5.8215L19.6374 3.63331C20.3959 3.51228 21.107 4.03075 21.2287 4.79352L22.5491 13.0677C22.6708 13.8304 22.1563 14.5445 21.3979 14.6655L7.68555 16.8537C6.92709 16.9747 6.21598 16.4563 6.09425 15.6935L4.77388 7.41934Z" fill="url(#paint0_linear_233_29043)"/>
<circle cx="28.0605" cy="18.0652" r="6.5" transform="rotate(-15 28.0605 18.0652)" fill="url(#paint1_linear_233_29043)"/>
<circle cx="28.06" cy="18.0653" r="5.13536" transform="rotate(-15 28.06 18.0653)" fill="url(#paint2_linear_233_29043)"/>
<circle cx="28.0602" cy="18.0655" r="4.3453" transform="rotate(-15 28.0602 18.0655)" fill="url(#paint3_linear_233_29043)"/>
<path d="M34.159 2.21384C34.4021 2.37665 34.5261 2.66197 34.4729 2.93812L34.2024 4.34079L36.78 4.83775C39.0169 5.26904 40.4974 7.34572 40.0867 9.47603C39.6079 11.9592 37.5185 12.7066 37.045 12.8471C36.9816 12.8667 36.915 12.8653 36.8506 12.8528C36.5997 12.8045 36.4348 12.5704 36.4805 12.3337C36.5121 12.1693 36.6403 12.0372 36.7884 11.9498C37.0419 11.7986 37.4108 11.4697 37.5389 10.8056C37.7628 9.64402 36.955 8.5108 35.7352 8.27563L33.5259 7.84967L33.2555 9.25235C33.2022 9.5285 32.9833 9.74771 32.6948 9.80801C32.4063 9.86832 32.1068 9.76283 31.926 9.53702L28.8523 5.67107C28.7243 5.50546 28.6709 5.29967 28.7093 5.10023C28.7478 4.90078 28.8739 4.7296 29.0538 4.62564L33.3445 2.17956C33.5968 2.03498 33.9163 2.04885 34.159 2.21384Z" fill="#FFC03E"/>
<defs>
<linearGradient id="paint0_linear_233_29043" x1="9.06006" y1="8.74243" x2="34.5601" y2="20.2424" gradientUnits="userSpaceOnUse">
<stop stop-color="#00B14F"/>
<stop offset="0.677083" stop-color="#03A500"/>
</linearGradient>
<linearGradient id="paint1_linear_233_29043" x1="28.0605" y1="11.5652" x2="28.0605" y2="24.5652" gradientUnits="userSpaceOnUse">
<stop stop-color="#FFE8AE"/>
<stop offset="1" stop-color="#FFB800"/>
</linearGradient>
<linearGradient id="paint2_linear_233_29043" x1="28.06" y1="12.9299" x2="28.06" y2="23.2006" gradientUnits="userSpaceOnUse">
<stop stop-color="#F49F20"/>
<stop offset="1" stop-color="#FFDA7B"/>
</linearGradient>
<linearGradient id="paint3_linear_233_29043" x1="28.0602" y1="13.7201" x2="28.0602" y2="22.4108" gradientUnits="userSpaceOnUse">
<stop stop-color="#FFE8AB"/>
<stop offset="1" stop-color="#FFA800"/>
</linearGradient>
</defs>
</svg>
