<svg width="60" height="60" viewBox="0 0 60 60" fill="none" xmlns="http://www.w3.org/2000/svg">
<g clip-path="url(#clip0_178_26019)">
<path d="M35.0241 31.8069C34.8541 33.3151 33.9676 34.5363 32.5947 35.14C31.8253 35.4745 30.798 35.6578 29.9739 35.6033C28.706 35.5488 27.5175 35.2249 26.4082 34.6496C26.0244 34.4317 25.4331 34.0233 24.9819 33.6419C24.8707 33.5329 24.8521 33.4784 24.9327 33.3656C24.9682 33.2995 25.0474 33.1786 25.2098 32.9336C25.4574 32.5725 25.4839 32.5248 25.5102 32.4785C25.5894 32.3613 25.7101 32.3506 25.8363 32.4432C25.8535 32.4614 25.8535 32.4614 25.8631 32.4702C25.8799 32.4892 25.8799 32.4892 25.9251 32.5247C25.9718 32.5616 26.0057 32.5792 26.014 32.6C27.2027 33.5598 28.5865 34.1047 29.9834 34.1592C31.9224 34.1323 33.3158 33.2331 33.5725 31.8435C33.8368 30.3312 32.6812 29.011 30.4215 28.2748C29.7095 28.0569 27.918 27.3189 27.5872 27.1136C26.0384 26.1779 25.3115 24.9498 25.4172 23.4269C25.5757 21.3221 27.4715 19.7555 29.8675 19.7418C30.931 19.7418 32.0031 19.9705 33.0201 20.4118C33.3869 20.5727 34.0416 20.9385 34.2593 21.1133C34.39 21.2132 34.4178 21.3221 34.3373 21.4441C34.3104 21.5185 34.2316 21.6294 34.0954 21.8671C33.8969 22.1793 33.8895 22.1923 33.8535 22.261C33.7828 22.3756 33.6818 22.3848 33.5473 22.3027C32.4602 21.5402 31.2341 21.1586 29.8944 21.1314C28.2305 21.1586 26.9793 22.1816 26.8988 23.5832C26.8822 24.8424 27.7939 25.7596 29.7683 26.4503C33.7841 27.7847 35.3159 29.3436 35.0241 31.8069ZM30.0723 10.0788C32.6814 10.0788 34.8128 12.6321 34.9184 15.833H25.2324C25.3256 12.6321 27.4633 10.0788 30.0723 10.0788ZM43.5951 16.4394C43.5951 16.1054 43.3444 15.833 43.0245 15.833H43.0036H36.7421C36.5837 11.6099 33.6549 8.23438 30.0723 8.23438C26.4875 8.23438 23.5663 11.6099 23.41 15.833H17.1223C16.8069 15.8404 16.5567 16.1068 16.5567 16.4394C16.5567 16.4587 16.5567 16.4671 16.5567 16.4863H16.5496L17.4426 36.8563C17.4426 36.9114 17.4531 36.967 17.4531 37.0332C17.4531 37.0461 17.4548 37.0501 17.4548 37.0744V37.1055L17.4614 37.1163C17.5958 38.5365 18.5906 39.6687 19.9501 39.7241V39.7349H39.8943C39.9048 39.7349 39.9109 39.7349 39.9212 39.7349C39.9367 39.7349 39.9367 39.7349 39.9481 39.7349H39.9894V39.7241C41.3683 39.6895 42.4973 38.5365 42.6049 37.1007L42.6109 37.0744C42.6109 37.0609 42.6109 37.0462 42.6109 37.0332C42.6109 36.9917 42.6213 36.9654 42.6213 36.9222L43.5951 16.4671C43.5951 16.4596 43.5951 16.448 43.5951 16.4394Z" fill="#EE4D2D"/>
<path d="M41.4404 47.1092C41.6134 46.5444 42.104 46.1837 42.6813 46.1837C43.2471 46.1837 43.7774 46.5733 43.9506 47.1092L43.9788 47.1396H41.4353L41.4404 47.1092ZM44.5283 47.9133C44.5362 47.9133 44.5362 47.9133 44.5487 47.9133C44.5567 47.9133 44.5567 47.9133 44.5567 47.9133C44.6722 47.9109 44.7728 47.7943 44.7728 47.6749C44.7728 47.6594 44.7723 47.6459 44.7712 47.6447C44.7716 47.6447 44.7716 47.6447 44.7716 47.631C44.7716 46.3948 43.8351 45.4134 42.681 45.4134C41.5299 45.4134 40.6037 46.3948 40.6037 47.631C40.6037 47.726 40.6037 47.8202 40.6204 47.913L40.6217 47.9133L40.6297 47.9403C40.6864 48.3756 40.8633 48.7757 41.1518 49.1037C41.4695 49.471 41.9021 49.728 42.3925 49.8179H42.4214C42.4503 49.8179 42.4546 49.8179 42.4791 49.8241C43.1139 49.9066 43.6863 49.8179 44.1529 49.5679C44.2683 49.5046 44.3837 49.4304 44.47 49.3709C44.4991 49.3417 44.5278 49.3142 44.5568 49.3067C44.5568 49.2822 44.5716 49.2822 44.5834 49.2822C44.6798 49.1631 44.6964 49.1255 44.6209 49.0138C44.5568 48.8947 44.4989 48.8061 44.4414 48.7162C44.4123 48.687 44.4077 48.6567 44.3837 48.6445C44.3837 48.6275 44.3837 48.6275 44.3832 48.6275C44.3805 48.6275 44.3805 48.6275 44.3771 48.6275H44.3757C44.3155 48.5376 44.2682 48.5376 44.2105 48.5971C44.2075 48.5971 44.1814 48.6275 44.1809 48.6275C43.7197 49.0441 43.0849 49.185 42.4621 49.0441C42.3442 49.0138 42.2451 48.9772 42.1329 48.9251C41.7511 48.7162 41.4695 48.3591 41.3826 47.9424V47.9132L44.5283 47.9133ZM36.4781 47.1092C36.6512 46.5444 37.1408 46.1837 37.7219 46.1837C38.2907 46.1837 38.8145 46.5733 38.9916 47.1092L39.017 47.1396H36.4781V47.1092ZM39.5712 47.9133C39.5798 47.9133 39.5798 47.9133 39.5923 47.9133C39.5941 47.9133 39.5941 47.9133 39.5941 47.9133C39.7096 47.9109 39.8165 47.7943 39.8165 47.6749C39.8165 47.6594 39.8161 47.6459 39.8149 47.6447C39.8151 47.6447 39.8151 47.6447 39.8151 47.631C39.8151 46.3948 38.8723 45.4134 37.7204 45.4134C36.5738 45.4134 35.6405 46.3948 35.6405 47.631C35.6405 47.726 35.6405 47.8202 35.664 47.913L35.6656 47.9133L35.6703 47.9403C35.728 48.3756 35.9011 48.7757 36.1896 49.1037C36.5061 49.471 36.9398 49.728 37.4294 49.8179H37.4595C37.4871 49.8179 37.4982 49.8179 37.5166 49.8241C38.1514 49.9066 38.7284 49.8179 39.1901 49.5679C39.3063 49.5046 39.4209 49.4304 39.5073 49.3709C39.5364 49.3417 39.565 49.3142 39.5941 49.3067C39.5941 49.2822 39.6153 49.2822 39.6228 49.2822C39.7234 49.1631 39.738 49.1255 39.6643 49.0138C39.5941 48.8947 39.5364 48.8061 39.4787 48.7162C39.4498 48.687 39.4494 48.6567 39.4209 48.6445C39.4209 48.6275 39.4209 48.6275 39.4209 48.6275C39.4209 48.6275 39.4209 48.6275 39.4205 48.6275H39.4193C39.359 48.5376 39.3055 48.5376 39.2478 48.5971L39.2184 48.6275C38.7567 49.0441 38.1221 49.185 37.5057 49.0441C37.3878 49.0138 37.2857 48.9772 37.1706 48.9251C36.7941 48.7162 36.5061 48.3591 36.4209 47.9424L36.4204 47.9132L39.5712 47.9133ZM32.6974 49.1329C31.919 49.1329 31.2842 48.5083 31.2616 47.7042V47.6301C31.2842 46.842 31.919 46.2044 32.6974 46.2044C33.4773 46.2044 34.1203 46.8622 34.1203 47.6753C34.1204 48.4782 33.4774 49.1329 32.6974 49.1329ZM32.6974 45.4217C32.1805 45.4217 31.698 45.6004 31.3114 45.9285L31.2616 45.9768V45.5615C31.2616 45.4424 31.2462 45.4217 31.1334 45.4217H30.6391C30.5274 45.4217 30.5075 45.4425 30.5075 45.5615V52.097C30.5075 52.1985 30.5274 52.228 30.6391 52.228H31.1334C31.2438 52.228 31.2616 52.1985 31.2616 52.097V49.3709L31.3114 49.4013C31.6982 49.728 32.1805 49.9066 32.6974 49.9066C33.909 49.9066 34.89 48.9062 34.89 47.6753C34.89 46.4253 33.909 45.4217 32.6974 45.4217ZM27.555 49.0757C26.761 49.0757 26.1263 48.432 26.1263 47.6312C26.1263 46.8307 26.7611 46.1868 27.555 46.1868C28.3479 46.1868 28.9835 46.8307 28.9835 47.6312C28.9836 48.4319 28.3479 49.0757 27.555 49.0757ZM27.555 45.4134C26.3431 45.4134 25.362 46.3948 25.362 47.634C25.362 48.8656 26.3431 49.8473 27.555 49.8473C28.7669 49.8473 29.7486 48.8656 29.7486 47.634C29.7486 46.3948 28.7669 45.4134 27.555 45.4134ZM22.6643 45.4553C22.229 45.4553 21.7985 45.5987 21.441 45.8742L21.3981 45.9118V42.8761C21.3981 42.7644 21.3658 42.7349 21.269 42.7349H20.7456C20.6444 42.7349 20.6156 42.7644 20.6156 42.8761V49.788C20.6156 49.9066 20.6445 49.937 20.7456 49.937H21.269C21.3658 49.937 21.3981 49.9015 21.3981 49.788V47.5259C21.4091 46.8168 21.9716 46.2468 22.6644 46.2468C23.3698 46.2468 23.9336 46.8238 23.9336 47.5384V49.788C23.9336 49.9066 23.9536 49.937 24.0637 49.937H24.5831C24.6985 49.937 24.7127 49.9066 24.7127 49.788V47.5256C24.7125 46.3948 23.7893 45.4553 22.6643 45.4553ZM15.3926 48.6775L15.3913 48.6823C15.3137 48.7947 15.2791 48.8353 15.2637 48.8655C15.2057 48.9542 15.2149 49.0005 15.3061 49.0732C15.5093 49.2517 15.7827 49.4303 15.9632 49.5201C16.4681 49.7873 17.0097 49.9066 17.5887 49.9362C17.9613 49.9405 18.4369 49.8471 18.7833 49.6987C19.418 49.4011 19.8212 48.8352 19.8898 48.1431C20.0024 47.0111 19.2882 46.3062 17.4526 45.7374L17.4513 45.7371C16.5907 45.4424 16.1876 45.0602 16.1874 44.5415C16.2154 43.9547 16.7407 43.5085 17.4524 43.4831C18.0188 43.4867 18.5237 43.6545 19.0235 43.9849C19.1294 44.0445 19.1728 44.0308 19.2451 43.9294C19.2554 43.9254 19.2739 43.8952 19.3731 43.7467H19.3737C19.4611 43.6267 19.4899 43.5681 19.4903 43.5681C19.5508 43.449 19.5477 43.4004 19.4354 43.33C19.3315 43.2405 19.0361 43.092 18.8696 43.0178C18.3937 42.8239 17.9034 42.7349 17.4219 42.7349C16.3162 42.7644 15.4512 43.5087 15.3936 44.4798C15.3636 45.1754 15.7096 45.7401 16.4313 46.1568C16.6335 46.2759 17.3696 46.5645 17.7157 46.6635C18.6968 46.961 19.2149 47.5035 19.1026 48.1514C19.013 48.7457 18.4148 49.1329 17.5843 49.1604C16.9793 49.1329 16.3664 48.9136 15.8399 48.5084C15.8376 48.508 15.8245 48.4825 15.7968 48.478C15.7635 48.4489 15.7635 48.4488 15.7539 48.447C15.6519 48.359 15.5821 48.3606 15.5224 48.478C15.509 48.4782 15.4309 48.609 15.3926 48.6775Z" fill="#EE4D2D"/>
</g>
<defs>
<clipPath id="clip0_178_26019">
<rect width="30" height="44" fill="white" transform="translate(15 8)"/>
</clipPath>
</defs>
</svg>
