<svg width="171" height="111" viewBox="0 0 171 111" fill="none" xmlns="http://www.w3.org/2000/svg">
<g clip-path="url(#clip0_233_29001)">
<mask id="mask0_233_29001" style="mask-type:luminance" maskUnits="userSpaceOnUse" x="0" y="0" width="171" height="111">
<path d="M165.3 0H5.7C2.55198 0 0 2.97583 0 6.64671V104.353C0 108.024 2.55198 111 5.7 111H165.3C168.448 111 171 108.024 171 104.353V6.64671C171 2.97583 168.448 0 165.3 0Z" fill="white"/>
</mask>
<g mask="url(#mask0_233_29001)">
<path d="M165.3 0H5.7C2.55198 0 0 2.97583 0 6.64671V104.353C0 108.024 2.55198 111 5.7 111H165.3C168.448 111 171 108.024 171 104.353V6.64671C171 2.97583 168.448 0 165.3 0Z" fill="url(#paint0_linear_233_29001)"/>
<path d="M165.3 0H5.7C2.55198 0 0 2.97583 0 6.64671V104.353C0 108.024 2.55198 111 5.7 111H165.3C168.448 111 171 108.024 171 104.353V6.64671C171 2.97583 168.448 0 165.3 0Z" fill="url(#paint1_linear_233_29001)"/>
<path d="M165.3 0H5.7C2.55198 0 0 2.97583 0 6.64671V104.353C0 108.024 2.55198 111 5.7 111H165.3C168.448 111 171 108.024 171 104.353V6.64671C171 2.97583 168.448 0 165.3 0Z" fill="url(#paint2_linear_233_29001)"/>
<path opacity="0.4" d="M82.0797 118.55L90.9834 127.718L156.097 41.7373L147.193 32.5687L82.0797 118.55Z" fill="url(#paint3_linear_233_29001)"/>
<path opacity="0.4" d="M60.6664 -32.0411L51.7627 -41.2096L-13.3504 44.7718L-4.4467 53.9403L60.6664 -32.0411Z" fill="url(#paint4_linear_233_29001)"/>
<path opacity="0.4" d="M97.4703 119.215L106.374 128.383L178.656 32.9359L169.752 23.7673L97.4703 119.215Z" fill="url(#paint5_linear_233_29001)"/>
<path opacity="0.4" d="M45.2758 -32.7057L36.3721 -41.8743L-35.9097 53.5733L-27.006 62.7418L45.2758 -32.7057Z" fill="url(#paint6_linear_233_29001)"/>
</g>
<g opacity="0.2">
<circle cx="21.5" cy="14.5" r="61.5" fill="url(#paint7_linear_233_29001)" stroke="url(#paint8_linear_233_29001)" stroke-width="4"/>
<circle cx="21.4997" cy="14.4999" r="40.3571" stroke="url(#paint9_linear_233_29001)" stroke-width="10"/>
<g filter="url(#filter0_ii_233_29001)">
<circle cx="21.5006" cy="14.4999" r="40.3248" fill="url(#paint10_linear_233_29001)"/>
</g>
<g filter="url(#filter1_d_233_29001)">
<path d="M14.2999 -6.50772C17.36 -11.9369 25.1782 -11.9369 28.2383 -6.50772L30.1373 -3.13851C31.2789 -1.1131 33.2452 0.315472 35.5242 0.775318L39.3153 1.54025C45.4244 2.77288 47.8404 10.2084 43.6225 14.7965L41.0051 17.6437C39.4316 19.3553 38.6805 21.6668 38.9474 23.9764L39.3915 27.8184C40.107 34.0093 33.7819 38.6047 28.1151 36.0111L24.5984 34.4016C22.4843 33.434 20.0538 33.434 17.9398 34.4016L14.423 36.0112C8.75618 38.6047 2.43113 34.0093 3.14664 27.8184L3.59066 23.9764C3.85759 21.6668 3.10654 19.3553 1.53304 17.6437L-1.08444 14.7965C-5.30225 10.2084 -2.88629 2.77288 3.22277 1.54025L7.0139 0.775318C9.29295 0.315474 11.2592 -1.1131 12.4008 -3.13851L14.2999 -6.50772Z" fill="url(#paint11_angular_233_29001)"/>
</g>
</g>
<rect x="18" y="81" width="135" height="20" rx="4" fill="white"/>
<path d="M33.2143 86.875H31.0714C30.875 86.875 30.7143 87.0297 30.7143 87.2188V89.2812C30.7143 89.4703 30.875 89.625 31.0714 89.625H33.2143C33.4107 89.625 33.5714 89.4703 33.5714 89.2812V87.2188C33.5714 87.0297 33.4107 86.875 33.2143 86.875ZM31.0714 86.1875H33.2143C33.8058 86.1875 34.2857 86.6494 34.2857 87.2188V89.2812C34.2857 89.8506 33.8058 90.3125 33.2143 90.3125H31.0714C30.4799 90.3125 30 89.8506 30 89.2812V87.2188C30 86.6494 30.4799 86.1875 31.0714 86.1875ZM33.2143 92.375H31.0714C30.875 92.375 30.7143 92.5297 30.7143 92.7188V94.7812C30.7143 94.9703 30.875 95.125 31.0714 95.125H33.2143C33.4107 95.125 33.5714 94.9703 33.5714 94.7812V92.7188C33.5714 92.5297 33.4107 92.375 33.2143 92.375ZM31.0714 91.6875H33.2143C33.8058 91.6875 34.2857 92.1494 34.2857 92.7188V94.7812C34.2857 95.3506 33.8058 95.8125 33.2143 95.8125H31.0714C30.4799 95.8125 30 95.3506 30 94.7812V92.7188C30 92.1494 30.4799 91.6875 31.0714 91.6875ZM36.7857 86.875C36.5893 86.875 36.4286 87.0297 36.4286 87.2188V89.2812C36.4286 89.4703 36.5893 89.625 36.7857 89.625H38.9286C39.125 89.625 39.2857 89.4703 39.2857 89.2812V87.2188C39.2857 87.0297 39.125 86.875 38.9286 86.875H36.7857ZM35.7143 87.2188C35.7143 86.6494 36.1942 86.1875 36.7857 86.1875H38.9286C39.5201 86.1875 40 86.6494 40 87.2188V89.2812C40 89.8506 39.5201 90.3125 38.9286 90.3125H36.7857C36.1942 90.3125 35.7143 89.8506 35.7143 89.2812V87.2188ZM35.7143 92.0312C35.7143 91.8422 35.875 91.6875 36.0714 91.6875H37.5C37.6964 91.6875 37.8571 91.8422 37.8571 92.0312V93.4922H39.2857V92.0312C39.2857 91.8422 39.4464 91.6875 39.6429 91.6875C39.8393 91.6875 40 91.8422 40 92.0312V93.8359C40 94.025 39.8393 94.1797 39.6429 94.1797H37.5C37.3036 94.1797 37.1429 94.025 37.1429 93.8359V92.375H36.4286V95.6406C36.4286 95.8297 36.2679 95.9844 36.0714 95.9844C35.875 95.9844 35.7143 95.8297 35.7143 95.6406V92.0312ZM31.9643 87.7344H32.3214C32.5179 87.7344 32.6786 87.8891 32.6786 88.0781V88.4219C32.6786 88.6109 32.5179 88.7656 32.3214 88.7656H31.9643C31.7679 88.7656 31.6071 88.6109 31.6071 88.4219V88.0781C31.6071 87.8891 31.7679 87.7344 31.9643 87.7344ZM31.6071 93.5781C31.6071 93.3891 31.7679 93.2344 31.9643 93.2344H32.3214C32.5179 93.2344 32.6786 93.3891 32.6786 93.5781V93.9219C32.6786 94.1109 32.5179 94.2656 32.3214 94.2656H31.9643C31.7679 94.2656 31.6071 94.1109 31.6071 93.9219V93.5781ZM37.6786 87.7344H38.0357C38.2321 87.7344 38.3929 87.8891 38.3929 88.0781V88.4219C38.3929 88.6109 38.2321 88.7656 38.0357 88.7656H37.6786C37.4821 88.7656 37.3214 88.6109 37.3214 88.4219V88.0781C37.3214 87.8891 37.4821 87.7344 37.6786 87.7344ZM37.1429 95.125C37.1429 94.9359 37.3036 94.7812 37.5 94.7812H37.8571C38.0536 94.7812 38.2143 94.9359 38.2143 95.125V95.4688C38.2143 95.6578 38.0536 95.8125 37.8571 95.8125H37.5C37.3036 95.8125 37.1429 95.6578 37.1429 95.4688V95.125ZM39.2857 94.7812H39.6429C39.8393 94.7812 40 94.9359 40 95.125V95.4688C40 95.6578 39.8393 95.8125 39.6429 95.8125H39.2857C39.0893 95.8125 38.9286 95.6578 38.9286 95.4688V95.125C38.9286 94.9359 39.0893 94.7812 39.2857 94.7812Z" fill="#424242"/>
<path d="M54.204 90.336C54.564 90.784 54.744 91.316 54.744 91.932V96H53.124V93.384H51.228C50.828 93.384 50.552 93.44 50.4 93.552C50.256 93.664 50.184 93.844 50.184 94.092C50.184 94.332 50.264 94.504 50.424 94.608C50.592 94.712 50.852 94.764 51.204 94.764C51.548 94.764 51.888 94.724 52.224 94.644V95.928C52.064 95.976 51.856 96.016 51.6 96.048C51.344 96.088 51.112 96.108 50.904 96.108C50.184 96.108 49.616 95.944 49.2 95.616C48.784 95.28 48.576 94.784 48.576 94.128C48.576 93.488 48.784 93 49.2 92.664C49.616 92.32 50.236 92.148 51.06 92.148H53.124V91.992C53.124 91.544 52.996 91.212 52.74 90.996C52.492 90.772 52.136 90.66 51.672 90.66C51.264 90.66 50.948 90.736 50.724 90.888C50.5 91.032 50.372 91.24 50.34 91.512H48.78C48.82 90.856 49.092 90.324 49.596 89.916C50.108 89.5 50.824 89.292 51.744 89.292C52.2 89.292 52.636 89.368 53.052 89.52L53.46 89.016H55.272L54.204 90.336ZM59.5666 89.436H61.1626V94.248C61.1626 94.376 61.1906 94.468 61.2466 94.524C61.3026 94.58 61.3946 94.608 61.5226 94.608H62.0866V96H60.9466C60.4506 96 60.0946 95.896 59.8786 95.688C59.6706 95.472 59.5666 95.116 59.5666 94.62V89.436ZM56.1706 89.436H57.7666V94.248C57.7666 94.376 57.7946 94.468 57.8506 94.524C57.9066 94.58 57.9986 94.608 58.1266 94.608H58.6906V96H57.5506C57.0546 96 56.6986 95.896 56.4826 95.688C56.2746 95.472 56.1706 95.116 56.1706 94.62V89.436ZM65.889 89.292C66.833 89.292 67.593 89.536 68.169 90.024C68.753 90.512 69.045 91.232 69.045 92.184V96H67.413V92.292C67.413 91.748 67.277 91.348 67.005 91.092C66.733 90.828 66.345 90.696 65.841 90.696C64.841 90.696 64.313 91.072 64.257 91.824H65.829V92.928C65.445 92.944 65.157 93.064 64.965 93.288C64.773 93.512 64.677 93.824 64.677 94.224V96H63.045V94.2C63.045 93.824 63.157 93.504 63.381 93.24C63.605 92.968 63.893 92.784 64.245 92.688H62.721V91.92C62.721 91.392 62.853 90.932 63.117 90.54C63.389 90.14 63.765 89.832 64.245 89.616C64.725 89.4 65.273 89.292 65.889 89.292ZM76.5639 89.436V96H75.0039V95.076C74.7959 95.404 74.5119 95.664 74.1519 95.856C73.7999 96.048 73.3799 96.144 72.8919 96.144C72.1399 96.144 71.5399 95.916 71.0919 95.46C70.6519 95.004 70.4319 94.38 70.4319 93.588V89.436H72.0639V93.252C72.0639 93.724 72.1759 94.088 72.3999 94.344C72.6239 94.6 72.9399 94.728 73.3479 94.728C73.8279 94.728 74.2119 94.576 74.4999 94.272C74.7879 93.968 74.9319 93.552 74.9319 93.024V89.436H76.5639ZM78.0209 89.436H79.6169V94.248C79.6169 94.376 79.6449 94.468 79.7009 94.524C79.7569 94.58 79.8489 94.608 79.9769 94.608H80.5409V96H79.4009C78.9049 96 78.5489 95.896 78.3329 95.688C78.1249 95.472 78.0209 95.116 78.0209 94.62V89.436ZM89.3954 89.436L88.0394 96H86.5154L85.1354 91.344L83.7554 96H82.2314L80.8754 89.436H82.4954L83.2754 93.648L84.4754 89.436H85.8314L87.0074 93.636L87.7754 89.436H89.3954ZM87.6034 86.34V88.572H82.2154V87.372H84.7354V86.34H85.8754V87.372H86.4634V86.34H87.6034ZM85.9834 83.592H87.3634V85.68H85.9834V83.592ZM92.9044 89.292C93.6164 89.292 94.2324 89.432 94.7524 89.712C95.2724 89.984 95.6724 90.38 95.9524 90.9C96.2324 91.412 96.3724 92.02 96.3724 92.724C96.3724 93.428 96.2324 94.036 95.9524 94.548C95.6724 95.06 95.2764 95.456 94.7644 95.736C94.2604 96.008 93.6644 96.144 92.9764 96.144C92.3204 96.144 91.7404 96.016 91.2364 95.76C90.7324 95.504 90.3404 95.148 90.0604 94.692C89.7884 94.236 89.6524 93.716 89.6524 93.132V92.244H92.8924V93.48H91.3084C91.3484 93.872 91.5084 94.184 91.7884 94.416C92.0684 94.64 92.4524 94.752 92.9404 94.752C93.5164 94.752 93.9564 94.576 94.2604 94.224C94.5644 93.864 94.7164 93.364 94.7164 92.724C94.7164 92.076 94.5604 91.576 94.2484 91.224C93.9444 90.864 93.4844 90.684 92.8684 90.684C92.4524 90.684 92.1204 90.756 91.8724 90.9C91.6324 91.044 91.4844 91.232 91.4284 91.464H89.8324C89.8804 91.064 90.0284 90.7 90.2764 90.372C90.5324 90.044 90.8844 89.784 91.3324 89.592C91.7804 89.392 92.3044 89.292 92.9044 89.292ZM100.191 94.836C100.575 94.836 100.871 94.78 101.079 94.668C101.287 94.548 101.391 94.372 101.391 94.14C101.391 93.892 101.299 93.72 101.115 93.624C100.931 93.52 100.591 93.432 100.095 93.36L99.5311 93.276C98.7951 93.172 98.2391 92.972 97.8631 92.676C97.4871 92.372 97.2991 91.924 97.2991 91.332C97.2991 90.668 97.5391 90.164 98.0191 89.82C98.4991 89.468 99.1671 89.292 100.023 89.292C100.943 89.292 101.635 89.48 102.099 89.856C102.563 90.232 102.815 90.76 102.855 91.44H101.379C101.299 90.88 100.859 90.6 100.059 90.6C99.2831 90.6 98.8951 90.82 98.8951 91.26C98.8951 91.508 98.9951 91.688 99.1951 91.8C99.4031 91.904 99.7551 91.988 100.251 92.052L100.827 92.136C101.531 92.232 102.067 92.432 102.435 92.736C102.803 93.032 102.987 93.472 102.987 94.056C102.987 94.728 102.727 95.244 102.207 95.604C101.695 95.964 101.015 96.144 100.167 96.144C99.2311 96.144 98.5151 95.948 98.0191 95.556C97.5231 95.156 97.2591 94.604 97.2271 93.9H98.7271C98.7511 94.212 98.8791 94.448 99.1111 94.608C99.3431 94.76 99.7031 94.836 100.191 94.836ZM100.004 86.376V86.856C100.004 87.04 100.048 87.172 100.136 87.252C100.216 87.332 100.352 87.372 100.544 87.372H103.724V88.572H100.448C99.8317 88.572 99.3757 88.452 99.0797 88.212C98.7837 87.972 98.6357 87.58 98.6357 87.036V86.376H100.004ZM106.928 96.144C106.024 96.144 105.284 95.9 104.708 95.412C104.14 94.916 103.856 94.192 103.856 93.24V89.436H105.488V93.132C105.488 93.676 105.612 94.08 105.86 94.344C106.116 94.6 106.472 94.728 106.928 94.728C107.384 94.728 107.74 94.6 107.996 94.344C108.252 94.08 108.38 93.676 108.38 93.132V89.436H110V93.24C110 94.192 109.712 94.916 109.136 95.412C108.568 95.9 107.832 96.144 106.928 96.144ZM114.529 89.292C115.441 89.292 116.189 89.536 116.773 90.024C117.357 90.504 117.649 91.22 117.649 92.172V96H116.017V92.268C116.017 91.74 115.881 91.348 115.609 91.092C115.345 90.836 114.977 90.708 114.505 90.708C114.041 90.708 113.673 90.836 113.401 91.092C113.129 91.348 112.993 91.74 112.993 92.268V92.916C113.225 92.508 113.641 92.304 114.241 92.304H115.009V93.684H114.337C113.865 93.684 113.529 93.784 113.329 93.984C113.129 94.184 113.029 94.516 113.029 94.98V96H111.397V92.172C111.397 91.22 111.689 90.504 112.273 90.024C112.857 89.536 113.609 89.292 114.529 89.292ZM122.068 89.292C122.78 89.292 123.396 89.432 123.916 89.712C124.436 89.984 124.836 90.38 125.116 90.9C125.396 91.412 125.536 92.02 125.536 92.724C125.536 93.428 125.396 94.036 125.116 94.548C124.836 95.06 124.44 95.456 123.928 95.736C123.424 96.008 122.828 96.144 122.14 96.144C121.484 96.144 120.904 96.016 120.4 95.76C119.896 95.504 119.504 95.148 119.224 94.692C118.952 94.236 118.816 93.716 118.816 93.132V92.244H122.056V93.48H120.472C120.512 93.872 120.672 94.184 120.952 94.416C121.232 94.64 121.616 94.752 122.104 94.752C122.68 94.752 123.12 94.576 123.424 94.224C123.728 93.864 123.88 93.364 123.88 92.724C123.88 92.076 123.724 91.576 123.412 91.224C123.108 90.864 122.648 90.684 122.032 90.684C121.616 90.684 121.284 90.756 121.036 90.9C120.796 91.044 120.648 91.232 120.592 91.464H118.996C119.044 91.064 119.192 90.7 119.44 90.372C119.696 90.044 120.048 89.784 120.496 89.592C120.944 89.392 121.468 89.292 122.068 89.292ZM129.522 94.74C130.082 94.74 130.494 94.636 130.758 94.428C131.022 94.22 131.154 93.86 131.154 93.348V89.436H132.786V93.444C132.786 94.356 132.49 95.036 131.898 95.484C131.306 95.924 130.522 96.144 129.546 96.144C128.626 96.144 127.882 95.96 127.314 95.592C126.754 95.216 126.474 94.676 126.474 93.972C126.474 93.628 126.566 93.328 126.75 93.072C126.934 92.808 127.17 92.636 127.458 92.556C127.186 92.46 126.962 92.284 126.786 92.028C126.618 91.772 126.534 91.472 126.534 91.128C126.534 90.592 126.706 90.176 127.05 89.88C127.394 89.584 127.89 89.436 128.538 89.436H129.762V90.792H128.862C128.39 90.792 128.154 90.988 128.154 91.38C128.154 91.764 128.402 91.956 128.898 91.956H129.798V93.216H129.006C128.398 93.216 128.094 93.444 128.094 93.9C128.094 94.164 128.214 94.372 128.454 94.524C128.702 94.668 129.058 94.74 129.522 94.74ZM140.305 89.436V96H138.745V95.076C138.537 95.404 138.253 95.664 137.893 95.856C137.541 96.048 137.121 96.144 136.633 96.144C135.881 96.144 135.281 95.916 134.833 95.46C134.393 95.004 134.173 94.38 134.173 93.588V89.436H135.805V93.252C135.805 93.724 135.917 94.088 136.141 94.344C136.365 94.6 136.681 94.728 137.089 94.728C137.569 94.728 137.953 94.576 138.241 94.272C138.529 93.968 138.673 93.552 138.673 93.024V89.436H140.305ZM136.974 88.596V88.08C136.974 87.56 137.114 87.188 137.394 86.964C137.674 86.732 138.118 86.616 138.726 86.616H140.478V87.828H138.882C138.706 87.828 138.582 87.864 138.51 87.936C138.43 88.008 138.39 88.128 138.39 88.296V88.596H136.974Z" fill="#424242"/>
<g filter="url(#filter2_d_233_29001)">
<path d="M128.083 14.018C129.241 14.018 130.151 14.2933 130.813 14.844C131.476 15.3853 131.84 16.118 131.905 17.042H129.973C129.927 16.65 129.74 16.3467 129.413 16.132C129.096 15.9173 128.648 15.81 128.069 15.81C127.537 15.81 127.122 15.8987 126.823 16.076C126.525 16.2533 126.375 16.5193 126.375 16.874C126.375 17.238 126.534 17.5133 126.851 17.7C127.169 17.8773 127.696 18.0313 128.433 18.162L129.231 18.288C130.211 18.4467 130.944 18.75 131.429 19.198C131.915 19.6367 132.157 20.2713 132.157 21.102C132.157 21.7833 131.98 22.3573 131.625 22.824C131.271 23.2813 130.795 23.622 130.197 23.846C129.6 24.07 128.942 24.182 128.223 24.182C127.393 24.182 126.674 24.0513 126.067 23.79C125.47 23.5193 125.003 23.146 124.667 22.67C124.341 22.1847 124.168 21.6247 124.149 20.99H126.095C126.151 21.4193 126.361 21.76 126.725 22.012C127.089 22.264 127.607 22.39 128.279 22.39C128.83 22.39 129.269 22.2967 129.595 22.11C129.922 21.914 130.085 21.6247 130.085 21.242C130.085 20.8687 129.941 20.598 129.651 20.43C129.371 20.262 128.886 20.122 128.195 20.01L127.369 19.87C126.352 19.6927 125.587 19.3753 125.073 18.918C124.56 18.4607 124.303 17.812 124.303 16.972C124.303 16.0573 124.644 15.3387 125.325 14.816C126.007 14.284 126.926 14.018 128.083 14.018ZM133.262 13.92H135.096V24H133.262V13.92ZM136.197 15.026C136.197 14.7087 136.304 14.4427 136.519 14.228C136.734 14.0133 137.004 13.906 137.331 13.906C137.658 13.906 137.928 14.0133 138.143 14.228C138.367 14.4427 138.479 14.7087 138.479 15.026C138.479 15.3527 138.367 15.6233 138.143 15.838C137.928 16.0527 137.658 16.16 137.331 16.16C137.004 16.16 136.734 16.0527 136.519 15.838C136.304 15.6233 136.197 15.3527 136.197 15.026ZM136.421 17.196H138.255V24H136.421V17.196ZM146.286 17.196L143.472 24H141.568L138.754 17.196H140.756L142.534 21.942L144.298 17.196H146.286ZM153.147 20.57C153.147 20.8313 153.137 21.0367 153.119 21.186H148.051C148.135 21.6713 148.326 22.0353 148.625 22.278C148.933 22.5207 149.306 22.642 149.745 22.642C150.519 22.642 150.991 22.3853 151.159 21.872H153.021C152.946 22.2827 152.764 22.6653 152.475 23.02C152.195 23.3653 151.821 23.6453 151.355 23.86C150.888 24.0747 150.361 24.182 149.773 24.182C149.063 24.182 148.433 24.0373 147.883 23.748C147.332 23.4493 146.903 23.0293 146.595 22.488C146.296 21.9467 146.147 21.3213 146.147 20.612C146.147 19.912 146.296 19.2913 146.595 18.75C146.903 18.1993 147.327 17.7747 147.869 17.476C148.41 17.168 149.026 17.014 149.717 17.014C150.379 17.014 150.972 17.168 151.495 17.476C152.017 17.7747 152.423 18.1947 152.713 18.736C153.002 19.2773 153.147 19.8887 153.147 20.57ZM149.689 18.54C149.259 18.54 148.9 18.666 148.611 18.918C148.331 19.1607 148.144 19.506 148.051 19.954H151.257C151.191 19.5247 151.014 19.184 150.725 18.932C150.445 18.6707 150.099 18.54 149.689 18.54ZM157.727 17.014C158.1 17.014 158.417 17.0747 158.679 17.196V18.932C158.324 18.8293 157.965 18.778 157.601 18.778C156.481 18.778 155.921 19.3287 155.921 20.43V24H154.087V17.196H155.851V17.952C156.271 17.3267 156.896 17.014 157.727 17.014ZM127.39 37.1C127.39 36.1293 127.605 35.2567 128.034 34.482C128.473 33.7073 129.075 33.1053 129.84 32.676C130.615 32.2373 131.492 32.018 132.472 32.018C133.322 32.018 134.082 32.1813 134.754 32.508C135.426 32.8253 135.968 33.264 136.378 33.824C136.798 34.384 137.064 35.0187 137.176 35.728H135.188C135.048 35.196 134.745 34.7573 134.278 34.412C133.812 34.0667 133.228 33.894 132.528 33.894C131.922 33.894 131.38 34.0293 130.904 34.3C130.438 34.5707 130.074 34.9487 129.812 35.434C129.551 35.9193 129.42 36.4747 129.42 37.1C129.42 37.7253 129.551 38.2807 129.812 38.766C130.074 39.2513 130.438 39.6293 130.904 39.9C131.38 40.1707 131.922 40.306 132.528 40.306C133.228 40.306 133.812 40.1333 134.278 39.788C134.754 39.4333 135.058 38.99 135.188 38.458H137.176C137.064 39.1767 136.798 39.816 136.378 40.376C135.968 40.936 135.426 41.3793 134.754 41.706C134.082 42.0233 133.322 42.182 132.472 42.182C131.492 42.182 130.615 41.9673 129.84 41.538C129.075 41.0993 128.473 40.4927 128.034 39.718C127.605 38.9433 127.39 38.0707 127.39 37.1ZM144.919 35.196V42H143.141V41.258C142.637 41.874 141.947 42.182 141.069 42.182C140.453 42.182 139.893 42.0233 139.389 41.706C138.885 41.3887 138.489 40.9593 138.199 40.418C137.91 39.8673 137.765 39.2607 137.765 38.598C137.765 37.9353 137.91 37.3333 138.199 36.792C138.489 36.2413 138.885 35.8073 139.389 35.49C139.893 35.1727 140.453 35.014 141.069 35.014C141.947 35.014 142.637 35.322 143.141 35.938V35.196H144.919ZM141.419 40.474C141.933 40.474 142.357 40.3013 142.693 39.956C143.029 39.6013 143.197 39.1487 143.197 38.598C143.197 38.0473 143.029 37.5993 142.693 37.254C142.357 36.8993 141.933 36.722 141.419 36.722C140.906 36.722 140.481 36.8993 140.145 37.254C139.809 37.5993 139.641 38.0473 139.641 38.598C139.641 39.1487 139.809 39.6013 140.145 39.956C140.481 40.3013 140.906 40.474 141.419 40.474ZM149.906 35.014C150.279 35.014 150.597 35.0747 150.858 35.196V36.932C150.503 36.8293 150.144 36.778 149.78 36.778C148.66 36.778 148.1 37.3287 148.1 38.43V42H146.266V35.196H148.03V35.952C148.45 35.3267 149.075 35.014 149.906 35.014ZM158.073 31.92V42H156.295V41.258C155.791 41.874 155.1 42.182 154.223 42.182C153.607 42.182 153.047 42.0233 152.543 41.706C152.039 41.3887 151.642 40.9593 151.353 40.418C151.063 39.8673 150.919 39.2607 150.919 38.598C150.919 37.9353 151.063 37.3333 151.353 36.792C151.642 36.2413 152.039 35.8073 152.543 35.49C153.047 35.1727 153.607 35.014 154.223 35.014C155.053 35.014 155.725 35.2987 156.239 35.868V31.92H158.073ZM154.573 40.474C155.086 40.474 155.511 40.3013 155.847 39.956C156.183 39.6013 156.351 39.1487 156.351 38.598C156.351 38.0473 156.183 37.5993 155.847 37.254C155.511 36.8993 155.086 36.722 154.573 36.722C154.059 36.722 153.635 36.8993 153.299 37.254C152.963 37.5993 152.795 38.0473 152.795 38.598C152.795 39.1487 152.963 39.6013 153.299 39.956C153.635 40.3013 154.059 40.474 154.573 40.474Z" fill="white"/>
</g>
</g>
<defs>
<filter id="filter0_ii_233_29001" x="-18.8242" y="-30.825" width="80.6494" height="90.6497" filterUnits="userSpaceOnUse" color-interpolation-filters="sRGB">
<feFlood flood-opacity="0" result="BackgroundImageFix"/>
<feBlend mode="normal" in="SourceGraphic" in2="BackgroundImageFix" result="shape"/>
<feColorMatrix in="SourceAlpha" type="matrix" values="0 0 0 0 0 0 0 0 0 0 0 0 0 0 0 0 0 0 127 0" result="hardAlpha"/>
<feOffset dy="5"/>
<feGaussianBlur stdDeviation="10"/>
<feComposite in2="hardAlpha" operator="arithmetic" k2="-1" k3="1"/>
<feColorMatrix type="matrix" values="0 0 0 0 0.579167 0 0 0 0 0.579167 0 0 0 0 0.579167 0 0 0 1 0"/>
<feBlend mode="normal" in2="shape" result="effect1_innerShadow_233_29001"/>
<feColorMatrix in="SourceAlpha" type="matrix" values="0 0 0 0 0 0 0 0 0 0 0 0 0 0 0 0 0 0 127 0" result="hardAlpha"/>
<feOffset dy="-5"/>
<feGaussianBlur stdDeviation="10"/>
<feComposite in2="hardAlpha" operator="arithmetic" k2="-1" k3="1"/>
<feColorMatrix type="matrix" values="0 0 0 0 0.366667 0 0 0 0 0.366667 0 0 0 0 0.366667 0 0 0 1 0"/>
<feBlend mode="normal" in2="effect1_innerShadow_233_29001" result="effect2_innerShadow_233_29001"/>
</filter>
<filter id="filter1_d_233_29001" x="-23.2021" y="-20.5796" width="88.9424" height="87.3294" filterUnits="userSpaceOnUse" color-interpolation-filters="sRGB">
<feFlood flood-opacity="0" result="BackgroundImageFix"/>
<feColorMatrix in="SourceAlpha" type="matrix" values="0 0 0 0 0 0 0 0 0 0 0 0 0 0 0 0 0 0 127 0" result="hardAlpha"/>
<feOffset dy="10"/>
<feGaussianBlur stdDeviation="10"/>
<feComposite in2="hardAlpha" operator="out"/>
<feColorMatrix type="matrix" values="0 0 0 0 0.225 0 0 0 0 0.225 0 0 0 0 0.225 0 0 0 0.55 0"/>
<feBlend mode="normal" in2="BackgroundImageFix" result="effect1_dropShadow_233_29001"/>
<feBlend mode="normal" in="SourceGraphic" in2="effect1_dropShadow_233_29001" result="shape"/>
</filter>
<filter id="filter2_d_233_29001" x="124.149" y="13.906" width="34.5293" height="29.276" filterUnits="userSpaceOnUse" color-interpolation-filters="sRGB">
<feFlood flood-opacity="0" result="BackgroundImageFix"/>
<feColorMatrix in="SourceAlpha" type="matrix" values="0 0 0 0 0 0 0 0 0 0 0 0 0 0 0 0 0 0 127 0" result="hardAlpha"/>
<feOffset dy="1"/>
<feComposite in2="hardAlpha" operator="out"/>
<feColorMatrix type="matrix" values="0 0 0 0 0.395833 0 0 0 0 0.395833 0 0 0 0 0.395833 0 0 0 0.25 0"/>
<feBlend mode="normal" in2="BackgroundImageFix" result="effect1_dropShadow_233_29001"/>
<feBlend mode="normal" in="SourceGraphic" in2="effect1_dropShadow_233_29001" result="shape"/>
</filter>
<linearGradient id="paint0_linear_233_29001" x1="11.7314" y1="6.78336" x2="91.9778" y2="71.173" gradientUnits="userSpaceOnUse">
<stop stop-color="#B5B8C2"/>
<stop offset="1" stop-color="#DDDFE5"/>
</linearGradient>
<linearGradient id="paint1_linear_233_29001" x1="11.7314" y1="6.78336" x2="91.9778" y2="71.173" gradientUnits="userSpaceOnUse">
<stop stop-color="#B5B8C2"/>
<stop offset="1" stop-color="#DDDFE5"/>
</linearGradient>
<linearGradient id="paint2_linear_233_29001" x1="11.7314" y1="6.78336" x2="91.9778" y2="71.173" gradientUnits="userSpaceOnUse">
<stop stop-color="#B5B8C2"/>
<stop offset="1" stop-color="#DDDFE5"/>
</linearGradient>
<linearGradient id="paint3_linear_233_29001" x1="86.5314" y1="123.134" x2="163.014" y2="48.8606" gradientUnits="userSpaceOnUse">
<stop stop-color="#B5B8C3"/>
<stop offset="1" stop-color="#D9D9D9" stop-opacity="0"/>
</linearGradient>
<linearGradient id="paint4_linear_233_29001" x1="56.2145" y1="-36.6254" x2="-20.2682" y2="37.6484" gradientUnits="userSpaceOnUse">
<stop stop-color="#B5B8C3"/>
<stop offset="1" stop-color="#D9D9D9" stop-opacity="0"/>
</linearGradient>
<linearGradient id="paint5_linear_233_29001" x1="126.496" y1="95.4236" x2="178.743" y2="40.3728" gradientUnits="userSpaceOnUse">
<stop stop-color="#B5B8C3"/>
<stop offset="1" stop-color="#D9D9D9" stop-opacity="0"/>
</linearGradient>
<linearGradient id="paint6_linear_233_29001" x1="16.2506" y1="-8.91479" x2="-35.9962" y2="46.1364" gradientUnits="userSpaceOnUse">
<stop stop-color="#B5B8C3"/>
<stop offset="1" stop-color="#D9D9D9" stop-opacity="0"/>
</linearGradient>
<linearGradient id="paint7_linear_233_29001" x1="21.5" y1="-49" x2="21.5" y2="78" gradientUnits="userSpaceOnUse">
<stop stop-color="#CFCFCF"/>
<stop offset="0.484375" stop-color="#EEEEEE"/>
<stop offset="1" stop-color="#919191"/>
</linearGradient>
<linearGradient id="paint8_linear_233_29001" x1="21.5" y1="-49" x2="21.5" y2="78" gradientUnits="userSpaceOnUse">
<stop stop-color="white"/>
<stop offset="0.197072" stop-color="#C6C6C6" stop-opacity="0"/>
</linearGradient>
<linearGradient id="paint9_linear_233_29001" x1="21.4997" y1="-30.8572" x2="21.4997" y2="59.857" gradientUnits="userSpaceOnUse">
<stop stop-color="#7E7E7E"/>
<stop offset="1" stop-color="#D8D8D8"/>
</linearGradient>
<linearGradient id="paint10_linear_233_29001" x1="21.5006" y1="-25.825" x2="21.5006" y2="54.8247" gradientUnits="userSpaceOnUse">
<stop stop-color="#C7C7C7"/>
<stop offset="1" stop-color="#747474"/>
</linearGradient>
<radialGradient id="paint11_angular_233_29001" cx="0" cy="0" r="1" gradientUnits="userSpaceOnUse" gradientTransform="translate(21.4013 14.7317) rotate(90.2256) scale(33.6043)">
<stop offset="0.107585" stop-color="#BFBFBF"/>
<stop offset="0.291667" stop-color="#DFDFDF"/>
<stop offset="0.494792" stop-color="#9E9E9E"/>
<stop offset="0.692708" stop-color="#D8D8D8"/>
<stop offset="0.885417" stop-color="#B3B3B3"/>
<stop offset="1" stop-color="#D7D7D7"/>
</radialGradient>
<clipPath id="clip0_233_29001">
<rect width="171" height="111" fill="white"/>
</clipPath>
</defs>
</svg>
