<svg width="22" height="22" viewBox="0 0 22 22" fill="none" xmlns="http://www.w3.org/2000/svg">
<path fill-rule="evenodd" clip-rule="evenodd" d="M4.29289 0.292893C4.68342 -0.0976311 5.31658 -0.0976311 5.70711 0.292893L7.70711 2.29289C8.09763 2.68342 8.09763 3.31658 7.70711 3.70711L5.70711 5.70711C5.31658 6.09763 4.68342 6.09763 4.29289 5.70711C3.90237 5.31658 3.90237 4.68342 4.29289 4.29289L4.55266 4.03313C3.10798 4.24911 2 5.49516 2 7C2 7.55228 1.55228 8 1 8C0.447715 8 0 7.55228 0 7C0 4.37273 2.02635 2.21874 4.60144 2.01565L4.29289 1.70711C3.90237 1.31658 3.90237 0.683417 4.29289 0.292893ZM8.22059 5.25074C8.99761 2.23181 11.7369 1.49012e-08 15 1.49012e-08C18.866 1.49012e-08 22 3.13401 22 7C22 10.2631 19.7682 13.0023 16.7493 13.7794C16.2145 13.9171 15.6693 13.5951 15.5316 13.0602C15.394 12.5254 15.7159 11.9802 16.2508 11.8425C18.4075 11.2874 20 9.32841 20 7C20 4.23858 17.7614 2 15 2C12.6716 2 10.7126 3.59251 10.1575 5.74926C10.0198 6.28411 9.47462 6.6061 8.93977 6.46844C8.40491 6.33078 8.08293 5.78559 8.22059 5.25074ZM7 10C4.23858 10 2 12.2386 2 15C2 17.7614 4.23858 20 7 20C9.76142 20 12 17.7614 12 15C12 12.2386 9.76142 10 7 10ZM0 15C0 11.134 3.13401 8 7 8C10.866 8 14 11.134 14 15C14 18.866 10.866 22 7 22C3.13401 22 0 18.866 0 15ZM21 14C21.5523 14 22 14.4477 22 15C22 17.6273 19.9736 19.7813 17.3986 19.9843L17.7071 20.2929C18.0976 20.6834 18.0976 21.3166 17.7071 21.7071C17.3166 22.0976 16.6834 22.0976 16.2929 21.7071L14.2929 19.7071C13.9024 19.3166 13.9024 18.6834 14.2929 18.2929L16.2929 16.2929C16.6834 15.9024 17.3166 15.9024 17.7071 16.2929C18.0976 16.6834 18.0976 17.3166 17.7071 17.7071L17.4473 17.9669C18.892 17.7509 20 16.5048 20 15C20 14.4477 20.4477 14 21 14Z" fill="#8A8A8A"/>
</svg>
