<svg width="60" height="60" viewBox="0 0 60 60" fill="none" xmlns="http://www.w3.org/2000/svg">
<path fill-rule="evenodd" clip-rule="evenodd" d="M34.9533 42.7466C36.0731 42.7466 36.981 41.851 36.981 40.7463C36.981 39.6416 36.0731 38.7458 34.9533 38.7458H34.6478C35.7677 38.7458 36.6755 39.6416 36.6755 40.7463C36.6755 41.851 35.7677 42.7466 34.6478 42.7466H34.9533Z" fill="#EE1D51"/>
<path fill-rule="evenodd" clip-rule="evenodd" d="M34.6202 38.7458H34.3147C33.1949 38.7458 32.2869 39.6416 32.2869 40.7463C32.2869 41.851 33.1949 42.7466 34.3147 42.7466H34.6202C33.5002 42.7466 32.5923 41.851 32.5923 40.7463C32.5923 39.6416 33.5002 38.7458 34.6202 38.7458Z" fill="#66C8CF"/>
<path fill-rule="evenodd" clip-rule="evenodd" d="M19.2045 37.8418V38.8557H20.3987V42.7192H21.5933V38.8831H22.5653L22.8986 37.8418H19.2045ZM28.9816 37.8418V38.8557H30.1758V42.7192H31.3704V38.8831H32.3425L32.6757 37.8418H28.9816ZM23.1211 38.4172C23.1211 38.0995 23.3818 37.8418 23.7039 37.8418C24.0263 37.8418 24.2873 38.0995 24.2873 38.4172C24.2873 38.7349 24.0264 38.9926 23.7039 38.9926C23.3818 38.9925 23.1211 38.7349 23.1211 38.4172ZM23.1211 39.4037H24.2873V42.7192H23.1211V39.4037ZM24.7874 37.8418V42.7192H25.954V41.4589L26.3151 41.1298L27.4538 42.7466H28.7037L27.0647 40.3901L28.5369 38.9651H27.1204L25.954 40.1159V37.8418H24.7874ZM37.3696 37.8418V42.7192H38.5364V41.4589L38.8974 41.1298L40.0364 42.7466H41.2864L39.6474 40.3901L41.1196 38.9651H39.7031L38.5364 40.1159V37.8418H37.3696Z" fill="black"/>
<path fill-rule="evenodd" clip-rule="evenodd" d="M35.5698 20.9583C37.1809 22.1031 39.1547 22.7767 41.2863 22.7767V18.699C40.8829 18.6991 40.4805 18.6573 40.0858 18.5741V21.7839C37.9543 21.7839 35.9808 21.1102 34.3692 19.9654V28.2868C34.3692 32.4496 30.9745 35.824 26.7871 35.824C25.2247 35.824 23.7724 35.3544 22.566 34.5492C23.9429 35.9486 25.863 36.8168 27.9873 36.8168C32.175 36.8168 35.5699 33.4424 35.5699 29.2795L35.5698 20.9583ZM37.0507 16.8444C36.2274 15.9502 35.6868 14.7946 35.5698 13.517V12.9926H34.4321C34.7184 14.6163 35.6952 16.0035 37.0507 16.8444ZM25.2145 31.3549C24.7546 30.7553 24.5059 30.0218 24.507 29.2676C24.507 27.3637 26.0598 25.82 27.9755 25.82C28.3325 25.8198 28.6874 25.8743 29.0276 25.9815V21.8127C28.63 21.7586 28.2288 21.7356 27.8276 21.7441V24.9889C27.4871 24.8816 27.1321 24.8271 26.775 24.8274C24.8593 24.8274 23.3067 26.371 23.3067 28.2751C23.3067 29.6214 24.0828 30.7871 25.2145 31.3549Z" fill="#EE1D52"/>
<path fill-rule="evenodd" clip-rule="evenodd" d="M34.3692 19.9654C35.9807 21.1102 37.9543 21.7839 40.0858 21.7839V18.5741C38.896 18.3223 37.8427 17.7041 37.0507 16.8444C35.6951 16.0035 34.7184 14.6163 34.4321 12.9926H31.4438V29.2793C31.437 31.178 29.8869 32.7153 27.9753 32.7153C26.8488 32.7153 25.8481 32.1817 25.2143 31.3549C24.0826 30.7871 23.3065 29.6214 23.3065 28.2751C23.3065 26.371 24.8591 24.8274 26.7748 24.8274C27.1418 24.8274 27.4955 24.8842 27.8274 24.9889V21.7441C23.7135 21.8285 20.4049 25.17 20.4049 29.2795C20.4049 31.3309 21.2289 33.1906 22.566 34.5493C23.7724 35.3546 25.2246 35.8241 26.787 35.8241C30.9745 35.8241 34.3692 32.4496 34.3692 28.287V19.9654Z" fill="black"/>
<path fill-rule="evenodd" clip-rule="evenodd" d="M40.0857 18.5742V17.7063C39.0127 17.7079 37.9609 17.4092 37.0506 16.8444C37.8564 17.7213 38.9175 18.3261 40.0857 18.5742ZM34.432 12.9927C34.4046 12.8375 34.3837 12.6813 34.3691 12.5244V12H30.2431V28.2869C30.2364 30.1855 28.6864 31.7228 26.7747 31.7228C26.2134 31.7228 25.6836 31.5904 25.2143 31.355C25.848 32.1818 26.8488 32.7155 27.9752 32.7155C29.8867 32.7155 31.4369 31.1781 31.4437 29.2795V12.9927H34.432ZM27.8274 21.7442V20.8202C27.4827 20.7733 27.1351 20.7499 26.7871 20.75C22.5992 20.75 19.2045 24.1246 19.2045 28.2869C19.2045 30.8966 20.5387 33.1964 22.5661 34.5493C21.2289 33.1906 20.405 31.3308 20.405 29.2795C20.405 25.1701 23.7134 21.8287 27.8274 21.7442Z" fill="#69C9D0"/>
<path fill-rule="evenodd" clip-rule="evenodd" d="M34.6477 42.7466C35.7675 42.7466 36.6755 41.851 36.6755 40.7463C36.6755 39.6416 35.7675 38.7458 34.6477 38.7458H34.62C33.5001 38.7458 32.5923 39.6416 32.5923 40.7463C32.5923 41.851 33.5001 42.7466 34.62 42.7466H34.6477ZM33.6478 40.7463C33.6478 40.2089 34.0894 39.7737 34.6341 39.7737C35.1784 39.7737 35.62 40.2089 35.62 40.7463C35.62 41.2836 35.1784 41.7192 34.6341 41.7192C34.0894 41.719 33.6478 41.2836 33.6478 40.7463Z" fill="black"/>
</svg>
