<svg width="47" height="23" viewBox="0 0 47 23" fill="none" xmlns="http://www.w3.org/2000/svg">
<circle cx="23.3154" cy="11.5" r="11.5" fill="url(#paint0_linear_233_29054)"/>
<circle cx="23.3151" cy="11.4999" r="9.08563" fill="url(#paint1_linear_233_29054)"/>
<circle cx="23.3148" cy="11.5003" r="7.68784" fill="url(#paint2_linear_233_29054)"/>
<path d="M43.852 8.38175C43.8626 8.67414 43.7042 8.94188 43.4493 9.06066L42.1544 9.66396L43.2631 12.0434C44.2252 14.1084 43.4109 16.5253 41.4443 17.4415C39.152 18.5096 37.3215 17.2551 36.9301 16.954C36.877 16.9141 36.8392 16.8593 36.8115 16.7998C36.7036 16.5682 36.7965 16.2974 37.015 16.1956C37.1668 16.1249 37.3489 16.1512 37.5066 16.22C37.7776 16.3367 38.2604 16.4427 38.8735 16.1571C39.9458 15.6575 40.3901 14.3386 39.8655 13.2127L38.9153 11.1732L37.6204 11.7765C37.3655 11.8952 37.0596 11.8464 36.8416 11.6481C36.6236 11.4497 36.5334 11.1452 36.6103 10.8664L37.94 6.10977C37.9991 5.90898 38.1345 5.74506 38.3186 5.65928C38.5027 5.57349 38.7153 5.57528 38.9051 5.66012L43.4022 7.70184C43.6673 7.82141 43.8434 8.08842 43.852 8.38175Z" fill="#FFC03E"/>
<path d="M1.92273 13.3427C1.96292 13.0529 2.16536 12.8167 2.43702 12.7439L3.81685 12.3742L3.13745 9.83863C2.54783 7.63813 3.76874 5.39896 5.86436 4.83744C8.30709 4.18291 9.89241 5.73567 10.2258 6.10009C10.2711 6.1486 10.2989 6.2091 10.3159 6.27249C10.382 6.51925 10.2435 6.76989 10.0106 6.83228C9.84893 6.87561 9.67408 6.81812 9.53076 6.72307C9.28401 6.56111 8.82691 6.373 8.17365 6.54804C7.03098 6.85422 6.36474 8.0761 6.68624 9.27596L7.26859 11.4493L8.64842 11.0796C8.92007 11.0068 9.2129 11.1079 9.39322 11.341C9.57354 11.5742 9.60955 11.8897 9.48547 12.151L7.35142 16.6051C7.25839 16.7926 7.09664 16.9306 6.90044 16.9831C6.70425 17.0357 6.49517 16.9971 6.32302 16.8807L2.24782 14.0903C2.00754 13.9266 1.88037 13.6331 1.92273 13.3427Z" fill="#00B14F"/>
<defs>
<linearGradient id="paint0_linear_233_29054" x1="23.3154" y1="0" x2="23.3154" y2="23" gradientUnits="userSpaceOnUse">
<stop stop-color="#FFE8AE"/>
<stop offset="1" stop-color="#FFB800"/>
</linearGradient>
<linearGradient id="paint1_linear_233_29054" x1="23.3151" y1="2.41425" x2="23.3151" y2="20.5855" gradientUnits="userSpaceOnUse">
<stop stop-color="#F49F20"/>
<stop offset="1" stop-color="#FFDA7B"/>
</linearGradient>
<linearGradient id="paint2_linear_233_29054" x1="23.3148" y1="3.8125" x2="23.3148" y2="19.1882" gradientUnits="userSpaceOnUse">
<stop stop-color="#FFE8AB"/>
<stop offset="1" stop-color="#FFA800"/>
</linearGradient>
</defs>
</svg>
