<svg width="53" height="53" viewBox="0 0 53 53" fill="none" xmlns="http://www.w3.org/2000/svg">
<circle cx="26.5" cy="26.5" r="26.5" fill="#EC5454"/>
<path d="M25.9997 22.25V27.25M25.9997 32.25H26.0122M24.2688 15.8647L13.9877 33.623C13.4175 34.608 13.1323 35.1005 13.1745 35.5047C13.2112 35.8572 13.396 36.1776 13.6827 36.3861C14.0114 36.625 14.5804 36.625 15.7186 36.625H36.2808C37.419 36.625 37.988 36.625 38.3167 36.3861C38.6034 36.1776 38.7881 35.8572 38.8249 35.5047C38.867 35.1005 38.5819 34.608 38.0116 33.623L27.7305 15.8647C27.1623 14.8832 26.8782 14.3925 26.5076 14.2277C26.1842 14.0839 25.8151 14.0839 25.4918 14.2277C25.1212 14.3925 24.8371 14.8832 24.2688 15.8647Z" stroke="white" stroke-width="2" stroke-linecap="round" stroke-linejoin="round"/>
</svg>
